<?xml version="1.0" encoding="UTF-8"?><svg xmlns="http://www.w3.org/2000/svg" viewBox="0 0 124.86 121.4"><defs><style>.d{fill:#fff;}</style></defs><g id="a"/><g id="b"><g id="c"><path class="d" d="M124.86,121.4l-30.07-58.47h26.79v-3h-28.33l-9.45-18.37,20.56-20.68-2.13-2.12-19.88,19.99L62.43,0l-20.01,38.92L22.38,18.99l-2.12,2.13,20.71,20.6-9.37,18.22H3.28v3H30.07L0,121.4H124.86Zm-6.55-4H63.93v-52.87l38.55,38.33,2.12-2.13-38.02-37.8h23.72l28.01,54.47Zm-29.55-57.47h-23.22l15.3-15.39,7.91,15.39Zm-24.82-2.64V11.66l15.46,30.07-15.46,15.55Zm-3-45.63V57.32l-15.54-15.45,15.54-30.21Zm-16.98,33.01l15.35,15.26h-23.19l7.85-15.26Zm14.37,18.26L20.49,100.98l2.13,2.12,38.31-38.53v52.84H6.55l28.01-54.47h23.75Z"/></g></g></svg>