<?xml version="1.0" encoding="UTF-8"?><svg xmlns="http://www.w3.org/2000/svg" viewBox="0 0 120 120"><defs><style>.d{fill:#fff;}</style></defs><g id="a"/><g id="b"><g id="c"><path class="d" d="M60,0C26.92,0,0,26.92,0,60s26.92,60,60,60,60-26.92,60-60S93.09,0,60,0Zm1.5,3.04c14.41,.38,27.51,6.12,37.35,15.31L61.5,56.35V3.04Zm-3,53.4L20.44,19.02C30.36,9.44,43.74,3.42,58.5,3.04V56.43Zm-2.17,2.07H3.04c.37-14.41,6.11-27.5,15.3-37.35L56.33,58.51Zm2.17,58.46c-14.41-.38-27.5-6.11-37.34-15.3L58.5,63.68v53.29Zm3-53.38l38.05,37.4c-9.92,9.58-23.29,15.59-38.05,15.97V63.59Zm2.16-2.08h53.3c-.38,14.41-6.12,27.5-15.31,37.35L63.66,61.51Zm53.3-3H63.59L100.99,20.45c9.58,9.92,15.59,23.3,15.97,38.05ZM3.04,61.51H56.43L19.02,99.56c-9.58-9.92-15.6-23.3-15.98-38.06Z"/></g></g></svg>