<?xml version="1.0" encoding="UTF-8"?><svg xmlns="http://www.w3.org/2000/svg" xmlns:xlink="http://www.w3.org/1999/xlink" viewBox="0 0 234.81 254.66"><defs><style>.f{fill:#566677;opacity:.57;}.g{fill:#9fa8b2;opacity:.33;}.h{fill:#374a5e;opacity:.68;}.i{fill:#fbfbfc;opacity:.01;}.j{fill:#3b4e61;opacity:.67;}.k{fill:#e8eaec;opacity:.08;}.l{fill:#b2b9c1;opacity:.26;}.m{fill:#a5aeb6;opacity:.31;}.n{fill:#eef0f1;opacity:.06;}.o{fill:#4d5e70;opacity:.6;}.p{fill:#4c5d6f;opacity:.61;}.q{fill:#87939e;opacity:.41;}.r{fill:#98a2ac;opacity:.35;}.s{fill:#cacfd4;opacity:.18;}.t{fill:#637281;opacity:.53;}.u{fill:#536474;opacity:.58;}.v{fill:#85919d;opacity:.41;}.w{fill:#a6afb7;opacity:.3;}.x{fill:#788592;opacity:.46;}.y{fill:url(#d);stroke:url(#e);stroke-miterlimit:10;stroke-width:5px;}.a`{fill:#e2e5e8;opacity:.1;}.aa{fill:#314559;opacity:.7;}.ab{fill:#435568;opacity:.64;}.ac{fill:#33475b;opacity:.69;}.ad{fill:#5f6f7e;opacity:.54;}.ae{fill:#ebedef;opacity:.07;}.af{fill:#d4d8dc;opacity:.15;}.ag{fill:#4e5f70;opacity:.6;}.ah{fill:#edeff0;opacity:.06;}.ai{fill:#f7f8f9;opacity:.03;}.aj{fill:#647382;opacity:.53;}.ak{fill:#99a3ad;opacity:.35;}.al{fill:#d3d7dc;opacity:.15;}.am{fill:#8f9aa5;opacity:.38;}.an{fill:#fff;opacity:0;}.ao{fill:#b0b8bf;opacity:.27;}.ap{fill:#84909c;opacity:.42;}.aq{fill:#707e8c;opacity:.49;}.ar{fill:#ced3d8;opacity:.17;}.as{fill:#677685;opacity:.52;}.at{fill:#bbc2c8;opacity:.23;}.au{fill:#b1b9c0;opacity:.27;}.av{fill:#828e9a;opacity:.42;}.aw{fill:#73818e;opacity:.48;}.ax{fill:#74818f;opacity:.47;}.ay{isolation:isolate;}.b`{fill:#6e7c8a;opacity:.49;}.ba{fill:#838f9b;opacity:.42;}.bb{fill:#fcfcfd;opacity:.01;}.bc{fill:#abb3bb;opacity:.29;}.bd{fill:#c8cdd3;opacity:.19;}.be{fill:#697886;opacity:.51;}.bf{fill:#627180;opacity:.53;}.bg{fill:#d7dbdf;opacity:.14;}.bh{fill:#a2abb4;opacity:.32;}.bi{fill:#eceef0;opacity:.06;}.bj{fill:#f2f3f5;opacity:.04;}.bk{fill:#485a6c;opacity:.62;}.bl{fill:#0145fe;}.bm{fill:#e7e9ec;opacity:.08;}.bn{fill:#bac1c7;opacity:.23;}.bo{fill:#aab2bb;opacity:.29;}.bp{fill:#a0a9b2;opacity:.32;}.bq{fill:#dbdee2;opacity:.12;}.br{fill:#7d8a96;opacity:.44;}.bs{fill:#2d62fe;}.bt{fill:#495b6c;opacity:.62;}.bu{fill:#c5cbd0;opacity:.2;}.bv{fill:#b4bbc3;opacity:.25;}.bw{fill:#949ea9;opacity:.36;}.bx{fill:#f0f1f3;opacity:.05;}.by{fill:#5c6c7c;opacity:.55;}.c`{fill:#46586a;opacity:.63;}.ca{fill:#c4cacf;opacity:.2;}.cb{fill:#35495c;opacity:.69;}.cc{fill:#c7ccd2;opacity:.19;}.cd{fill:#fdfdfd;opacity:0;}.ce{fill:#9ba5ae;opacity:.34;}.cf{fill:#dcdfe3;opacity:.12;}.cg{fill:#8e99a4;opacity:.38;}.ch{fill:#f8f9f9;opacity:.02;}.ci{fill:#f9fafa;opacity:.02;}.cj{fill:#657483;opacity:.52;}.ck{fill:#5e6e7d;opacity:.55;}.cl{fill:#ccd1d6;opacity:.17;}.cm{fill:#cdd2d7;opacity:.17;}.cn{fill:#e9ebed;opacity:.07;}.co{fill:#4a5c6d;opacity:.62;}.cp{fill:#d1d5da;opacity:.16;}.cq{fill:#96a0aa;opacity:.36;}.cr{fill:#9aa4ae;opacity:.34;}.cs{fill:#bec4cb;opacity:.22;}.ct{fill:#bfc5cb;opacity:.22;}.cu{fill:#4f6071;opacity:.6;}.cv{fill:#526374;opacity:.59;}.cw{fill:#bcc3c9;opacity:.23;}.cx{fill:#556676;opacity:.58;}.cy{fill:#415366;opacity:.65;}.d`{fill:#afb7bf;opacity:.27;}.da{fill:#768391;opacity:.47;}.db{fill:#364a5d;opacity:.68;}.dc{fill:#3d5063;opacity:.66;}.dd{fill:#a3acb5;opacity:.31;}.de{fill:#dde0e4;opacity:.12;}.df{fill:#6f7d8b;opacity:.49;}.dg{fill:#919ca6;opacity:.37;}.dh{fill:#dadee1;opacity:.13;}.di{fill:#909ba6;opacity:.38;}.dj{fill:#c1c7cd;opacity:.21;}.dk{fill:#9da7b0;opacity:.33;}.dl{fill:#5b6b7b;opacity:.56;}.dm{fill:#97a1ab;opacity:.35;}.dn{fill:#9ea7b1;opacity:.33;}.do{fill:#e1e4e7;opacity:.1;}.dp{fill:#8b96a2;opacity:.39;}.dq{fill:#e6e8eb;opacity:.08;}.dr{fill:#758290;opacity:.47;}.ds{fill:#34485b;opacity:.69;}.dt{fill:#b9c0c7;opacity:.24;}.du{fill:#e0e3e6;opacity:.11;}.dv{fill:#cbd0d5;opacity:.18;}.dw{fill:#7c8995;opacity:.45;}.dx{fill:#667584;opacity:.52;}.dy{fill:#a4adb6;opacity:.31;}.e`{fill:#394c5f;opacity:.67;}.ea{fill:#adb5bd;opacity:.28;}.eb{fill:#929da7;opacity:.37;}.ec{fill:#72808d;opacity:.48;}.ed{fill:#d6dade;opacity:.14;}.ee{fill:#596979;opacity:.56;}.ef{fill:#4b5c6e;opacity:.61;}.eg{fill:#e3e6e8;opacity:.1;}.eh{fill:#546575;opacity:.58;}.ei{fill:#c9ced3;opacity:.18;}.ej{fill:#dfe2e5;opacity:.11;}.ek{fill:#3a4d60;opacity:.67;}.el{fill:#d0d5d9;opacity:.16;}.em{fill:#7e8b97;opacity:.44;}.en{fill:#445668;opacity:.64;}.eo{fill:#47596b;opacity:.63;}.ep{fill:#f3f4f5;opacity:.04;}.eq{fill:#959faa;opacity:.36;}.er{fill:#818d99;opacity:.43;}.es{fill:#7a8794;opacity:.45;}.et{fill:#b3bac2;opacity:.26;}.eu{fill:#798693;opacity:.46;}.ev{fill:#6a7887;opacity:.51;}.ew{fill:#f4f5f6;opacity:.04;}.ex{fill:#a9b1ba;opacity:.29;}.ey{fill:#8994a0;opacity:.4;}.f`{fill:#86929d;opacity:.41;}.fa{fill:#f5f6f7;opacity:.03;}.fb{fill:#5d6d7c;opacity:.55;}.fc{fill:#d8dce0;opacity:.13;}.fd{fill:#384b5f;opacity:.68;}.fe{fill:#3c4f62;opacity:.66;}.ff{fill:#d5d9dd;opacity:.14;}.fg{fill:#eaecee;opacity:.07;}.fh{fill:#506172;opacity:.59;}.fi{fill:#586878;opacity:.57;}.fj{fill:#dee1e4;opacity:.11;}.fk{fill:#6d7b89;opacity:.5;}.fl{fill:#405365;opacity:.65;}.fm{fill:#a8b0b9;opacity:.3;}.fn{fill:#b5bcc3;opacity:.25;}.fo{fill:#3e5163;opacity:.66;}.fp{fill:#8a95a1;opacity:.4;}.fq{fill:#516273;opacity:.59;}.fr{fill:#8d98a3;opacity:.39;}.fs{fill:#acb4bc;opacity:.28;}.ft{fill:#3f5264;opacity:.65;}.fu{fill:#778491;opacity:.46;}.fv{fill:#e4e7e9;opacity:.09;}.fw{fill:#425467;opacity:.64;}.fx{fill:#9ca6af;opacity:.34;}.fy{fill:#fafafb;opacity:.02;}.g`{fill:#c3c9cf;opacity:.2;}.ga{fill:#b7bec5;opacity:.24;}.gb{fill:#a1aab3;opacity:.32;}.gc{fill:#f6f7f8;opacity:.03;}.gd{fill:#7f8b98;opacity:.43;}.ge{fill:#bdc3ca;opacity:.22;}.gf{fill:#b6bdc4;opacity:.25;}.gg{fill:#eff1f2;opacity:.05;}.gh{fill:#7b8895;opacity:.45;}.gi{fill:#617080;opacity:.54;}.gj{fill:#d2d6db;opacity:.15;}.gk{fill:#939da8;opacity:.37;}.gl{fill:#808c99;opacity:.43;}.gm{fill:#32465a;opacity:.7;}.gn{fill:#576778;opacity:.57;}.go{fill:#c6ccd1;opacity:.19;}.gp{fill:#606f7f;opacity:.54;}.gq{fill:#cfd4d8;opacity:.16;}.gr{fill:#717f8d;opacity:.48;}.gs{fill:#e5e8ea;opacity:.09;}.gt{fill:#c2c8ce;opacity:.21;}.gu{fill:#f1f2f4;opacity:.05;}.gv{fill:#88949f;opacity:.4;}.gw{fill:#687785;opacity:.51;}.gx{fill:#d9dde0;opacity:.13;}.gy{mix-blend-mode:multiply;}.h`{fill:#fefefe;opacity:0;}.ha{fill:#b8bfc6;opacity:.24;}.hb{fill:#6c7a89;opacity:.5;}.hc{fill:#8c97a2;opacity:.39;}.hd{fill:#455769;opacity:.63;}.he{fill:#c0c6cc;opacity:.21;}.hf{fill:#6b7988;opacity:.5;}.hg{fill:#5a6a7a;opacity:.56;}.hh{fill:#a7b0b8;opacity:.3;}.hi{fill:#aeb6be;opacity:.28;}</style><linearGradient id="d" x1="7305.57" y1="-36.62" x2="7508.78" y2="-36.62" gradientTransform="translate(80.78 -7303.07) rotate(90)" gradientUnits="userSpaceOnUse"><stop offset="0" stop-color="#fff"/><stop offset=".28" stop-color="#fafafb"/><stop offset=".6" stop-color="#edeef2"/><stop offset=".93" stop-color="#d7dae2"/><stop offset="1" stop-color="#d1d5de"/></linearGradient><linearGradient id="e" x1="13.3" y1="104.1" x2="221.51" y2="104.1" gradientTransform="matrix(1, 0, 0, 1, 0, 0)" xlink:href="#d"/></defs><g class="ay"><g id="a"/><g id="b"><g id="c"><g><g><g class="gy"><circle class="an" cx="117.41" cy="137.25" r="117.41"/><circle class="h`" cx="117.41" cy="137.22" r="117.19"/><circle class="cd" cx="117.41" cy="137.19" r="116.97"/><circle class="bb" cx="117.41" cy="137.16" r="116.76"/><circle class="i" cx="117.41" cy="137.13" r="116.54"/><circle class="fy" cx="117.41" cy="137.1" r="116.32"/><circle class="ci" cx="117.41" cy="137.07" r="116.1"/><circle class="ch" cx="117.41" cy="137.03" r="115.89"/><circle class="ai" cx="117.41" cy="137" r="115.67"/><circle class="gc" cx="117.41" cy="136.97" r="115.45"/><circle class="fa" cx="117.41" cy="136.94" r="115.24"/><circle class="ew" cx="117.41" cy="136.91" r="115.02"/><circle class="ep" cx="117.41" cy="136.88" r="114.8"/><circle class="bj" cx="117.41" cy="136.85" r="114.59"/><circle class="gu" cx="117.41" cy="136.81" r="114.37"/><circle class="bx" cx="117.41" cy="136.78" r="114.15"/><circle class="gg" cx="117.41" cy="136.75" r="113.94"/><circle class="n" cx="117.41" cy="136.72" r="113.72"/><circle class="ah" cx="117.41" cy="136.69" r="113.5"/><circle class="bi" cx="117.41" cy="136.66" r="113.28"/><circle class="ae" cx="117.41" cy="136.63" r="113.07"/><circle class="fg" cx="117.41" cy="136.6" r="112.85"/><circle class="cn" cx="117.41" cy="136.56" r="112.63"/><circle class="k" cx="117.41" cy="136.53" r="112.42"/><circle class="bm" cx="117.41" cy="136.5" r="112.2"/><circle class="dq" cx="117.41" cy="136.47" r="111.98"/><circle class="gs" cx="117.41" cy="136.44" r="111.77"/><circle class="fv" cx="117.41" cy="136.41" r="111.55"/><circle class="eg" cx="117.41" cy="136.38" r="111.33"/><circle class="a`" cx="117.41" cy="136.34" r="111.12"/><circle class="do" cx="117.41" cy="136.31" r="110.9"/><circle class="du" cx="117.41" cy="136.28" r="110.68"/><circle class="ej" cx="117.41" cy="136.25" r="110.46"/><circle class="fj" cx="117.41" cy="136.22" r="110.25"/><circle class="de" cx="117.41" cy="136.19" r="110.03"/><circle class="cf" cx="117.41" cy="136.16" r="109.81"/><circle class="bq" cx="117.41" cy="136.13" r="109.6"/><circle class="dh" cx="117.41" cy="136.09" r="109.38"/><circle class="gx" cx="117.41" cy="136.06" r="109.16"/><circle class="fc" cx="117.41" cy="136.03" r="108.95"/><circle class="bg" cx="117.41" cy="136" r="108.73"/><circle class="ed" cx="117.41" cy="135.97" r="108.51"/><circle class="ff" cx="117.41" cy="135.94" r="108.3"/><circle class="af" cx="117.41" cy="135.91" r="108.08"/><circle class="al" cx="117.41" cy="135.88" r="107.86"/><circle class="gj" cx="117.41" cy="135.84" r="107.65"/><circle class="cp" cx="117.41" cy="135.81" r="107.43"/><circle class="el" cx="117.41" cy="135.78" r="107.21"/><circle class="gq" cx="117.41" cy="135.75" r="106.99"/><circle class="ar" cx="117.41" cy="135.72" r="106.78"/><circle class="cm" cx="117.41" cy="135.69" r="106.56"/><circle class="cl" cx="117.41" cy="135.66" r="106.34"/><circle class="dv" cx="117.41" cy="135.62" r="106.13"/><circle class="s" cx="117.41" cy="135.59" r="105.91"/><circle class="ei" cx="117.41" cy="135.56" r="105.69"/><circle class="bd" cx="117.41" cy="135.53" r="105.48"/><circle class="cc" cx="117.41" cy="135.5" r="105.26"/><circle class="go" cx="117.41" cy="135.47" r="105.04"/><circle class="bu" cx="117.41" cy="135.44" r="104.83"/><circle class="ca" cx="117.41" cy="135.41" r="104.61"/><circle class="g`" cx="117.41" cy="135.37" r="104.39"/><circle class="gt" cx="117.41" cy="135.34" r="104.17"/><circle class="dj" cx="117.41" cy="135.31" r="103.96"/><circle class="he" cx="117.41" cy="135.28" r="103.74"/><circle class="ct" cx="117.41" cy="135.25" r="103.52"/><circle class="cs" cx="117.41" cy="135.22" r="103.31"/><circle class="ge" cx="117.41" cy="135.19" r="103.09"/><circle class="cw" cx="117.41" cy="135.15" r="102.87"/><circle class="at" cx="117.41" cy="135.12" r="102.66"/><circle class="bn" cx="117.41" cy="135.09" r="102.44"/><circle class="dt" cx="117.41" cy="135.06" r="102.22"/><circle class="ha" cx="117.41" cy="135.03" r="102.01"/><circle class="ga" cx="117.41" cy="135" r="101.79"/><circle class="gf" cx="117.41" cy="134.97" r="101.57"/><circle class="fn" cx="117.41" cy="134.94" r="101.35"/><circle class="bv" cx="117.41" cy="134.9" r="101.14"/><circle class="et" cx="117.41" cy="134.87" r="100.92"/><circle class="l" cx="117.41" cy="134.84" r="100.7"/><circle class="au" cx="117.41" cy="134.81" r="100.49"/><circle class="ao" cx="117.41" cy="134.78" r="100.27"/><circle class="d`" cx="117.41" cy="134.75" r="100.05"/><circle class="hi" cx="117.41" cy="134.72" r="99.84"/><circle class="ea" cx="117.41" cy="134.68" r="99.62"/><circle class="fs" cx="117.41" cy="134.65" r="99.4"/><circle class="bc" cx="117.41" cy="134.62" r="99.19"/><circle class="bo" cx="117.41" cy="134.59" r="98.97"/><circle class="ex" cx="117.41" cy="134.56" r="98.75"/><circle class="fm" cx="117.41" cy="134.53" r="98.53"/><circle class="hh" cx="117.41" cy="134.5" r="98.32"/><circle class="w" cx="117.41" cy="134.47" r="98.1"/><circle class="m" cx="117.41" cy="134.43" r="97.88"/><circle class="dy" cx="117.41" cy="134.4" r="97.67"/><circle class="dd" cx="117.41" cy="134.37" r="97.45"/><circle class="bh" cx="117.41" cy="134.34" r="97.23"/><circle class="gb" cx="117.41" cy="134.31" r="97.02"/><circle class="bp" cx="117.41" cy="134.28" r="96.8"/><circle class="g" cx="117.41" cy="134.25" r="96.58"/><circle class="dn" cx="117.41" cy="134.21" r="96.37"/><circle class="dk" cx="117.41" cy="134.18" r="96.15"/><circle class="fx" cx="117.41" cy="134.15" r="95.93"/><circle class="ce" cx="117.41" cy="134.12" r="95.71"/><circle class="cr" cx="117.41" cy="134.09" r="95.5"/><circle class="ak" cx="117.41" cy="134.06" r="95.28"/><circle class="r" cx="117.41" cy="134.03" r="95.06"/><circle class="dm" cx="117.41" cy="134" r="94.85"/><circle class="cq" cx="117.41" cy="133.96" r="94.63"/><circle class="eq" cx="117.41" cy="133.93" r="94.41"/><circle class="bw" cx="117.41" cy="133.9" r="94.2"/><circle class="gk" cx="117.41" cy="133.87" r="93.98"/><circle class="eb" cx="117.41" cy="133.84" r="93.76"/><circle class="dg" cx="117.41" cy="133.81" r="93.55"/><circle class="di" cx="117.41" cy="133.78" r="93.33"/><circle class="am" cx="117.41" cy="133.74" r="93.11"/><circle class="cg" cx="117.41" cy="133.71" r="92.89"/><circle class="fr" cx="117.41" cy="133.68" r="92.68"/><circle class="hc" cx="117.41" cy="133.65" r="92.46"/><circle class="dp" cx="117.41" cy="133.62" r="92.24"/><circle class="fp" cx="117.41" cy="133.59" r="92.03"/><circle class="ey" cx="117.41" cy="133.56" r="91.81"/><circle class="gv" cx="117.41" cy="133.53" r="91.59"/><circle class="q" cx="117.41" cy="133.49" r="91.38"/><circle class="f`" cx="117.41" cy="133.46" r="91.16"/><circle class="v" cx="117.41" cy="133.43" r="90.94"/><circle class="ap" cx="117.41" cy="133.4" r="90.73"/><circle class="ba" cx="117.41" cy="133.37" r="90.51"/><circle class="av" cx="117.41" cy="133.34" r="90.29"/><circle class="er" cx="117.41" cy="133.31" r="90.07"/><circle class="gl" cx="117.41" cy="133.27" r="89.86"/><circle class="gd" cx="117.41" cy="133.24" r="89.64"/><circle class="em" cx="117.41" cy="133.21" r="89.42"/><circle class="br" cx="117.41" cy="133.18" r="89.21"/><circle class="dw" cx="117.41" cy="133.15" r="88.99"/><circle class="gh" cx="117.41" cy="133.12" r="88.77"/><circle class="es" cx="117.41" cy="133.09" r="88.56"/><circle class="eu" cx="117.41" cy="133.06" r="88.34"/><circle class="x" cx="117.41" cy="133.02" r="88.12"/><circle class="fu" cx="117.41" cy="132.99" r="87.91"/><circle class="da" cx="117.41" cy="132.96" r="87.69"/><circle class="dr" cx="117.41" cy="132.93" r="87.47"/><circle class="ax" cx="117.41" cy="132.9" r="87.25"/><circle class="aw" cx="117.41" cy="132.87" r="87.04"/><circle class="ec" cx="117.41" cy="132.84" r="86.82"/><circle class="gr" cx="117.41" cy="132.8" r="86.6"/><circle class="aq" cx="117.41" cy="132.77" r="86.39"/><circle class="df" cx="117.41" cy="132.74" r="86.17"/><circle class="b`" cx="117.41" cy="132.71" r="85.95"/><circle class="fk" cx="117.41" cy="132.68" r="85.74"/><circle class="hb" cx="117.41" cy="132.65" r="85.52"/><circle class="hf" cx="117.41" cy="132.62" r="85.3"/><circle class="ev" cx="117.41" cy="132.59" r="85.09"/><circle class="be" cx="117.41" cy="132.55" r="84.87"/><circle class="gw" cx="117.41" cy="132.52" r="84.65"/><circle class="as" cx="117.41" cy="132.49" r="84.43"/><circle class="dx" cx="117.41" cy="132.46" r="84.22"/><circle class="cj" cx="117.41" cy="132.43" r="84"/><circle class="aj" cx="117.41" cy="132.4" r="83.78"/><circle class="t" cx="117.41" cy="132.37" r="83.57"/><circle class="bf" cx="117.41" cy="132.33" r="83.35"/><circle class="gi" cx="117.41" cy="132.3" r="83.13"/><circle class="gp" cx="117.41" cy="132.27" r="82.92"/><circle class="ad" cx="117.41" cy="132.24" r="82.7"/><circle class="ck" cx="117.41" cy="132.21" r="82.48"/><circle class="fb" cx="117.41" cy="132.18" r="82.27"/><circle class="by" cx="117.41" cy="132.15" r="82.05"/><circle class="dl" cx="117.41" cy="132.12" r="81.83"/><circle class="hg" cx="117.41" cy="132.08" r="81.61"/><circle class="ee" cx="117.41" cy="132.05" r="81.4"/><circle class="fi" cx="117.41" cy="132.02" r="81.18"/><circle class="gn" cx="117.41" cy="131.99" r="80.96"/><circle class="f" cx="117.41" cy="131.96" r="80.75"/><circle class="cx" cx="117.41" cy="131.93" r="80.53"/><circle class="eh" cx="117.41" cy="131.9" r="80.31"/><circle class="u" cx="117.41" cy="131.87" r="80.1"/><circle class="cv" cx="117.41" cy="131.83" r="79.88"/><circle class="fq" cx="117.41" cy="131.8" r="79.66"/><circle class="fh" cx="117.41" cy="131.77" r="79.45"/><circle class="cu" cx="117.41" cy="131.74" r="79.23"/><circle class="ag" cx="117.41" cy="131.71" r="79.01"/><circle class="o" cx="117.41" cy="131.68" r="78.79"/><circle class="p" cx="117.41" cy="131.65" r="78.58"/><circle class="ef" cx="117.41" cy="131.61" r="78.36"/><circle class="co" cx="117.41" cy="131.58" r="78.14"/><circle class="bt" cx="117.41" cy="131.55" r="77.93"/><circle class="bk" cx="117.41" cy="131.52" r="77.71"/><circle class="eo" cx="117.41" cy="131.49" r="77.49"/><circle class="c`" cx="117.41" cy="131.46" r="77.28"/><circle class="hd" cx="117.41" cy="131.43" r="77.06"/><circle class="en" cx="117.41" cy="131.4" r="76.84"/><circle class="ab" cx="117.41" cy="131.36" r="76.63"/><circle class="fw" cx="117.41" cy="131.33" r="76.41"/><circle class="cy" cx="117.41" cy="131.3" r="76.19"/><circle class="fl" cx="117.41" cy="131.27" r="75.97"/><circle class="ft" cx="117.41" cy="131.24" r="75.76"/><circle class="fo" cx="117.41" cy="131.21" r="75.54"/><circle class="dc" cx="117.41" cy="131.18" r="75.32"/><circle class="fe" cx="117.41" cy="131.14" r="75.11"/><circle class="j" cx="117.41" cy="131.11" r="74.89"/><circle class="ek" cx="117.41" cy="131.08" r="74.67"/><circle class="e`" cx="117.41" cy="131.05" r="74.46"/><circle class="fd" cx="117.41" cy="131.02" r="74.24"/><circle class="h" cx="117.41" cy="130.99" r="74.02"/><circle class="db" cx="117.41" cy="130.96" r="73.81"/><circle class="cb" cx="117.41" cy="130.93" r="73.59"/><circle class="ds" cx="117.41" cy="130.89" r="73.37"/><circle class="ac" cx="117.41" cy="130.86" r="73.16"/><circle class="gm" cx="117.41" cy="130.83" r="72.94"/><circle class="aa" cx="117.41" cy="130.8" r="72.72"/></g><circle class="y" cx="117.41" cy="104.1" r="101.6"/></g><g><polyline class="bl" points="60.72 121.5 62.89 127.93 69.52 130.8 106.55 129.55 107.44 156.99 90.33 158.78 87.91 163.25 87.4 169.72 87.27 172.82 146.63 172.82 145.61 161.2 137.69 157.89 125.82 158.27 126.4 127.93 167.44 129.16 172.93 123.27 126.4 120.1 116.68 113.97 109.35 120.99 81.18 120.61 60.72 120.99"/><g><g><path class="bs" d="M73.43,40.01c11.51,0,20.88,9.37,20.88,20.88s-9.37,20.88-20.88,20.88-20.88-9.37-20.88-20.88,9.37-20.88,20.88-20.88m0-4.62c-14.08,0-25.5,11.42-25.5,25.5s11.42,25.5,25.5,25.5,25.5-11.42,25.5-25.5-11.42-25.5-25.5-25.5h0Z"/><path class="bs" d="M180.77,95.56s-27.66,0-41.5,.01c-2.49,0-4.69-.04-4.69-.04-.21,3.59-.45,11.24,.26,14.82,.56,2.85,1.84,5.36,3.78,7.53,.14,.16,.25,.35,.43,.62-.58,.27-1.12,.18-1.63,.18-3.21,0-6.42-.02-9.63,.01-.8,0-1.28-.17-1.72-.94-2.16-3.77-5.14-5.66-9.39-6-4.35,.29-7.23,2.22-9.39,6-.44,.76-.92,.94-1.72,.94-3.21-.03-6.42,0-9.63-.01-.51,0-1.05,.09-1.63-.18,.18-.27,.29-.46,.43-.62,1.94-2.17,3.21-4.68,3.78-7.53,.71-3.58,.47-11.22,.26-14.82,0,0-2.2,.04-4.69,.04-13.83-.01-41.5-.01-41.5-.01,0,0-3.71-.03-4.37-.03l.02,14.51c.1,1.34,.7,3.09,1.35,4.31,1.58,2.95,3.74,5.31,6.67,6.91,.72,.39,.99,.43,1.15,.6,.84,5.45,5.43,10.61,10.96,10.65,11.84,.08,23.69,.03,35.53,.04,1.86,0,1.87,0,1.87,1.81,0,6.69-.02,13.38,.02,20.07,0,1.05-.27,1.4-1.36,1.38-3.21-.07-6.43,.11-9.63-.06-4.84-.26-9.54,3.33-9.84,8.9-.09,1.67-.08,7.95-.03,9.62h63.49c.05-1.67,.06-7.96-.03-9.62-.31-5.58-5-9.16-9.84-8.9-3.2,.17-6.42-.01-9.63,.06-1.09,.02-1.36-.33-1.36-1.38,.04-6.69,.02-13.38,.02-20.07,0-1.81,0-1.81,1.87-1.81,11.84,0,23.69,.04,35.53-.04,5.53-.04,10.12-5.2,10.96-10.65,.15-.16,.43-.2,1.15-.6,2.93-1.61,5.1-3.97,6.67-6.91,.65-1.22,1.25-2.97,1.35-4.31l.02-14.51c-.66,0-4.37,.03-4.37,.03Zm-70.2,27.83c0-.44-.03-.73,.01-1.22,.57-2.97,2.78-5.19,5.42-5.45,.22-.07,1.13-.07,1.36,0,2.65,.26,4.85,2.47,5.42,5.45,.05,.46,.06,1.2,.06,1.2,0,0,.19,20.81,.18,31.18,0,.42,.19,.92-.29,1.24h-12.1c-.49-.32-.29-.82-.29-1.24-.01-10.37,.23-20.8,.23-31.16Zm-57.91-15.09c-.3-2.46-.06-4.93-.14-7.4-.02-.63,.33-.74,.85-.73,1.26,.02,2.52,.03,3.77,.04,10.81-.01,21.61-.02,32.42-.03,1.27,0,2.53,.01,3.8,.02,.48,0,.93,.02,.91,.69-.1,3.24,.37,6.52-.58,9.7-1.34,4.49-5.67,7.99-10.33,8.06-6.74,.11-13.47,.03-20.21,.03-.4,0-1-.03-1.13-.11-4.75-.6-8.71-5.01-9.35-10.27Zm49.66,19.59c-.4,0-.81,0-1.21,0-10.57,0-21.14,.02-31.71,.02-2.88,.22-5.05-.92-6.61-3.33-.53-.82-.7-1.4,.64-1.28,1.06,.1,26.45,0,36.58,0,.19,0,.9,.01,1.07,.02,1.26-.01,3.34-.02,4.6-.05,0,0,.02,.23,.05,.88,0,.04,0,.09,0,.13q.21,3.6-3.41,3.6Zm34.83,32.55h.54c.63,0,1.26-.05,1.89,0,2.15,.17,4.01,1.9,4.1,3.97,.08,1.75,0,3.51-.02,5.27-2.19,.12-2.88-.02-4.86,.05-7.37,0-14.74-.01-22.12-.02-7.37,0-14.74,.01-22.12,.02-2.5-.09-3.16,.02-4.86-.05-.01-1.76-.1-3.51-.02-5.27,.09-2.06,1.95-3.8,4.1-3.97,.63-.05,1.26,0,1.89,0h.54c6.82,0,13.64,0,20.46,0,6.82,0,13.64,0,20.46,0Zm33.44-35.87c-1.55,2.41-3.73,3.56-6.61,3.33-10.57,0-21.14-.02-31.71-.02-.4,0-.81,0-1.21,0q-3.62,0-3.41-3.6s-.03-.98,0-1.01c.03-.03,.25-.02,.88,0,1.26,.03,2.52,.03,3.77,.05,.17,0,.88-.02,1.07-.02,10.13,0,35.52,.09,36.58,0,1.34-.13,1.17,.45,.64,1.28Zm10.13-16.27c-.64,5.26-4.61,9.67-9.35,10.27-.13,.08-.73,.11-1.13,.11-6.74,0-13.48,.08-20.21-.03-4.66-.08-8.99-3.57-10.33-8.06-.95-3.19-.48-6.46-.58-9.7-.02-.66,.43-.69,.91-.69,1.27,0,2.53-.02,3.8-.02,10.81,.01,21.61,.02,32.42,.03,1.26-.01,2.52-.02,3.77-.04,.52,0,.87,.09,.85,.73-.08,2.46,.16,4.94-.14,7.4Z"/><path class="bs" d="M144.04,73.51c4.23,3.93,8.58,7.74,12.88,11.6,.08,.07,.16,.14,.23,.2h0c1.08,1.09,2.84,1.09,3.92,0h0c.08-.07,.15-.13,.23-.2,4.3-3.86,8.65-7.66,12.88-11.6,5.65-5.25,11.09-10.68,12.61-18.74,.15-1.58,.11-3.42-.2-5.8-.65-3.9-2.27-7.29-5.22-9.99-2.16-1.98-4.8-3.29-7.58-3.63-3.61-.21-5.8,.43-6.68,.72-2.9,.94-5.36,2.55-7.35,4.84-.26,.3-.46,.46-.65,.49-.19-.03-.39-.19-.65-.49-1.99-2.29-4.45-3.9-7.35-4.84-.89-.29-3.07-.93-6.68-.72-2.78,.34-5.42,1.65-7.58,3.63-2.95,2.7-4.57,6.09-5.22,9.99-.31,2.38-.34,4.22-.2,5.8,1.52,8.05,6.96,13.48,12.61,18.74Zm-4.42-30.65c2.09-2.29,6.09-3.48,10.18-2.23,3.06,1.08,5.44,2.99,6.99,5.86,.51,.95,1.12,1.76,2.25,1.81h.14c1.13-.06,1.74-.86,2.25-1.81,1.55-2.87,3.93-4.78,6.99-5.86,4.09-1.26,8.09-.06,10.18,2.23,4.78,5.23,4.8,12.53,.37,18.65-2.91,4.02-6.52,7.36-10.18,10.65-2.78,2.5-5.62,4.95-8.4,7.45-.64,.57-.98,.88-1.29,.93-.31-.05-.65-.36-1.29-.93-2.79-2.5-5.62-4.95-8.4-7.45-3.66-3.29-7.27-6.63-10.18-10.65-4.43-6.12-4.4-13.42,.37-18.65Z"/><path class="bs" d="M49.74,51.62c.13-.68,.41-1.28,.92-1.76,1.63-.69,2.8-.41,3.49,.84,.58,1.06,.18,2.33-.89,3.04-1.17,.77-3.44,.17-3.51-2.11Z"/></g><path class="bs" d="M70.75,66.25c.66,0,1.28,.39,1.5,1.02,.18,.5,.5,.8,1.02,.8,.78,0,1.04-.78,1.04-1.52,0-1.29-.55-2-2.4-2.88-4.29-1.85-6.29-3.7-6.29-7.8,0-3.81,2.14-7.14,7.58-7.14,4.71,0,6.94,1.8,7.46,5.19,.12,.79-.51,1.5-1.31,1.5h-3.77c-.59,0-1.1-.39-1.27-.95s-.49-.83-1-.83c-.7,0-1,.52-1,1.44,0,1.04,.55,1.7,2,2.29,4.62,1.89,6.88,4.18,6.88,8.21s-1.81,7.4-7.84,7.4c-4.86,0-6.9-2.13-7.61-4.7-.28-1.02,.5-2.03,1.56-2.03h3.46Zm.48-16.42v-2.37c0-1.17,.95-2.13,2.13-2.13h0c1.17,0,2.13,.95,2.13,2.13v2.37h-4.25Zm0,24.46v-1.87h4.25v1.87c0,1.17-.95,2.13-2.13,2.13h0c-1.17,0-2.13-.95-2.13-2.13Z"/></g></g></g></g></g></g></svg>