<?xml version="1.0" encoding="UTF-8"?><svg xmlns="http://www.w3.org/2000/svg" xmlns:xlink="http://www.w3.org/1999/xlink" viewBox="0 0 360.31 475.15"><defs><style>.e{clip-path:url(#d);}.f{fill:#ebebeb;}.g{fill:none;}</style><clipPath id="d"><circle class="g" cx="178.44" cy="235.94" r="144.42"/></clipPath></defs><g id="a"/><g id="b"><g id="c"><g class="e"><rect class="f" x="178.14" y="84.06" width="3.94" height="307.12" transform="translate(-93.58 119.32) rotate(-29.46)"/><rect class="f" x="167.85" y="94.35" width="3.94" height="307.12" transform="translate(-99.97 115.59) rotate(-29.46)"/><rect class="f" x="157.56" y="104.63" width="3.94" height="307.12" transform="translate(-106.36 111.86) rotate(-29.46)"/><rect class="f" x="147.28" y="114.92" width="3.94" height="307.12" transform="translate(-112.75 108.13) rotate(-29.46)"/><rect class="f" x="136.99" y="125.21" width="3.94" height="307.12" transform="translate(-119.14 104.4) rotate(-29.46)"/><rect class="f" x="126.71" y="135.49" width="3.94" height="307.12" transform="translate(-125.53 100.67) rotate(-29.46)"/><rect class="f" x="116.42" y="145.78" width="3.94" height="307.12" transform="translate(-131.92 96.94) rotate(-29.46)"/><rect class="f" x="106.13" y="156.06" width="3.94" height="307.12" transform="translate(-138.31 93.22) rotate(-29.46)"/><rect class="f" x="95.85" y="166.35" width="3.94" height="307.12" transform="translate(-144.7 89.49) rotate(-29.46)"/><rect class="f" x="85.56" y="176.64" width="3.94" height="307.12" transform="translate(-151.09 85.76) rotate(-29.46)"/><rect class="f" x="75.28" y="186.92" width="3.94" height="307.12" transform="translate(-157.48 82.03) rotate(-29.46)"/><rect class="f" x="188.43" y="73.77" width="3.94" height="307.12" transform="translate(-87.19 123.05) rotate(-29.46)"/><rect class="f" x="198.73" y="63.47" width="3.94" height="307.12" transform="translate(-80.79 126.78) rotate(-29.46)"/><rect class="f" x="209.02" y="53.18" width="3.94" height="307.12" transform="translate(-74.4 130.52) rotate(-29.46)"/><rect class="f" x="219.32" y="42.88" width="3.94" height="307.12" transform="translate(-68 134.25) rotate(-29.46)"/><rect class="f" x="229.61" y="32.59" width="3.94" height="307.12" transform="translate(-61.61 137.98) rotate(-29.46)"/><rect class="f" x="239.91" y="22.29" width="3.94" height="307.12" transform="translate(-55.21 141.71) rotate(-29.46)"/><rect class="f" x="250.2" y="12" width="3.94" height="307.12" transform="translate(-48.82 145.45) rotate(-29.46)"/><rect class="f" x="260.5" y="1.7" width="3.94" height="307.12" transform="translate(-42.42 149.18) rotate(-29.46)"/><rect class="f" x="270.79" y="-8.59" width="3.94" height="307.12" transform="translate(-36.03 152.91) rotate(-29.46)"/><rect class="f" x="281.09" y="-18.89" width="3.94" height="307.12" transform="translate(-29.63 156.64) rotate(-29.46)"/></g></g></g></svg>