<?xml version="1.0" encoding="UTF-8"?><svg xmlns="http://www.w3.org/2000/svg" xmlns:xlink="http://www.w3.org/1999/xlink" viewBox="0 0 234.81 254.66"><defs><style>.f{fill:#566677;opacity:.57;}.g{fill:#9fa8b2;opacity:.33;}.h{fill:#374a5e;opacity:.68;}.i{fill:#fbfbfc;opacity:.01;}.j{fill:#3b4e61;opacity:.67;}.k{fill:#e8eaec;opacity:.08;}.l{fill:#b2b9c1;opacity:.26;}.m{fill:#a5aeb6;opacity:.31;}.n{fill:#eef0f1;opacity:.06;}.o{fill:#4d5e70;opacity:.6;}.p{fill:#4c5d6f;opacity:.61;}.q{fill:#87939e;opacity:.41;}.r{fill:#98a2ac;opacity:.35;}.s{fill:#cacfd4;opacity:.18;}.t{fill:#637281;opacity:.53;}.u{fill:#536474;opacity:.58;}.v{fill:#85919d;opacity:.41;}.w{fill:#a6afb7;opacity:.3;}.x{fill:#788592;opacity:.46;}.y{fill:url(#d);stroke:url(#e);stroke-width:5px;}.y,.a`{stroke-miterlimit:10;}.aa{fill:#e2e5e8;opacity:.1;}.ab{fill:#314559;opacity:.7;}.ac{fill:#435568;opacity:.64;}.ad{fill:#33475b;opacity:.69;}.ae{fill:#5f6f7e;opacity:.54;}.af{fill:#ebedef;opacity:.07;}.ag{fill:#d4d8dc;opacity:.15;}.ah{fill:#4e5f70;opacity:.6;}.ai{fill:#edeff0;opacity:.06;}.aj{fill:#f7f8f9;opacity:.03;}.ak{fill:#647382;opacity:.53;}.al{fill:#99a3ad;opacity:.35;}.am{fill:#d3d7dc;opacity:.15;}.an{fill:#8f9aa5;opacity:.38;}.ao{fill:#fff;opacity:0;}.ap{fill:#b0b8bf;opacity:.27;}.aq{fill:#84909c;opacity:.42;}.ar{fill:#707e8c;opacity:.49;}.as{fill:#ced3d8;opacity:.17;}.at{fill:#677685;opacity:.52;}.au{fill:#bbc2c8;opacity:.23;}.av{fill:#b1b9c0;opacity:.27;}.aw{fill:#828e9a;opacity:.42;}.ax{fill:#73818e;opacity:.48;}.ay{fill:#74818f;opacity:.47;}.b`{isolation:isolate;}.ba{fill:#6e7c8a;opacity:.49;}.bb{fill:#838f9b;opacity:.42;}.bc{fill:#fcfcfd;opacity:.01;}.bd{fill:#abb3bb;opacity:.29;}.be{fill:#c8cdd3;opacity:.19;}.bf{fill:#697886;opacity:.51;}.bg{fill:#627180;opacity:.53;}.bh{fill:#d7dbdf;opacity:.14;}.bi{fill:#a2abb4;opacity:.32;}.bj{fill:#eceef0;opacity:.06;}.bk{fill:#f2f3f5;opacity:.04;}.bl{fill:#485a6c;opacity:.62;}.a`{fill:#2d62fe;stroke:#2d62fe;stroke-width:.41px;}.bm{fill:#0145fe;}.bn{fill:#e7e9ec;opacity:.08;}.bo{fill:#bac1c7;opacity:.23;}.bp{fill:#aab2bb;opacity:.29;}.bq{fill:#a0a9b2;opacity:.32;}.br{fill:#dbdee2;opacity:.12;}.bs{fill:#7d8a96;opacity:.44;}.bt{fill:#495b6c;opacity:.62;}.bu{fill:#c5cbd0;opacity:.2;}.bv{fill:#b4bbc3;opacity:.25;}.bw{fill:#949ea9;opacity:.36;}.bx{fill:#f0f1f3;opacity:.05;}.by{fill:#5c6c7c;opacity:.55;}.c`{fill:#46586a;opacity:.63;}.ca{fill:#c4cacf;opacity:.2;}.cb{fill:#35495c;opacity:.69;}.cc{fill:#c7ccd2;opacity:.19;}.cd{fill:#fdfdfd;opacity:0;}.ce{fill:#9ba5ae;opacity:.34;}.cf{fill:#dcdfe3;opacity:.12;}.cg{fill:#8e99a4;opacity:.38;}.ch{fill:#f8f9f9;opacity:.02;}.ci{fill:#f9fafa;opacity:.02;}.cj{fill:#657483;opacity:.52;}.ck{fill:#5e6e7d;opacity:.55;}.cl{fill:#ccd1d6;opacity:.17;}.cm{fill:#cdd2d7;opacity:.17;}.cn{fill:#e9ebed;opacity:.07;}.co{fill:#4a5c6d;opacity:.62;}.cp{fill:#d1d5da;opacity:.16;}.cq{fill:#96a0aa;opacity:.36;}.cr{fill:#9aa4ae;opacity:.34;}.cs{fill:#bec4cb;opacity:.22;}.ct{fill:#bfc5cb;opacity:.22;}.cu{fill:#4f6071;opacity:.6;}.cv{fill:#526374;opacity:.59;}.cw{fill:#bcc3c9;opacity:.23;}.cx{fill:#556676;opacity:.58;}.cy{fill:#415366;opacity:.65;}.d`{fill:#afb7bf;opacity:.27;}.da{fill:#768391;opacity:.47;}.db{fill:#364a5d;opacity:.68;}.dc{fill:#3d5063;opacity:.66;}.dd{fill:#a3acb5;opacity:.31;}.de{fill:#dde0e4;opacity:.12;}.df{fill:#6f7d8b;opacity:.49;}.dg{fill:#919ca6;opacity:.37;}.dh{fill:#dadee1;opacity:.13;}.di{fill:#909ba6;opacity:.38;}.dj{fill:#c1c7cd;opacity:.21;}.dk{fill:#9da7b0;opacity:.33;}.dl{fill:#5b6b7b;opacity:.56;}.dm{fill:#97a1ab;opacity:.35;}.dn{fill:#9ea7b1;opacity:.33;}.do{fill:#e1e4e7;opacity:.1;}.dp{fill:#8b96a2;opacity:.39;}.dq{fill:#e6e8eb;opacity:.08;}.dr{fill:#758290;opacity:.47;}.ds{fill:#34485b;opacity:.69;}.dt{fill:#b9c0c7;opacity:.24;}.du{fill:#e0e3e6;opacity:.11;}.dv{fill:#cbd0d5;opacity:.18;}.dw{fill:#7c8995;opacity:.45;}.dx{fill:#667584;opacity:.52;}.dy{fill:#a4adb6;opacity:.31;}.e`{fill:#394c5f;opacity:.67;}.ea{fill:#adb5bd;opacity:.28;}.eb{fill:#929da7;opacity:.37;}.ec{fill:#72808d;opacity:.48;}.ed{fill:#d6dade;opacity:.14;}.ee{fill:#596979;opacity:.56;}.ef{fill:#4b5c6e;opacity:.61;}.eg{fill:#e3e6e8;opacity:.1;}.eh{fill:#546575;opacity:.58;}.ei{fill:#c9ced3;opacity:.18;}.ej{fill:#dfe2e5;opacity:.11;}.ek{fill:#3a4d60;opacity:.67;}.el{fill:#d0d5d9;opacity:.16;}.em{fill:#7e8b97;opacity:.44;}.en{fill:#445668;opacity:.64;}.eo{fill:#47596b;opacity:.63;}.ep{fill:#f3f4f5;opacity:.04;}.eq{fill:#959faa;opacity:.36;}.er{fill:#818d99;opacity:.43;}.es{fill:#7a8794;opacity:.45;}.et{fill:#b3bac2;opacity:.26;}.eu{fill:#798693;opacity:.46;}.ev{fill:#6a7887;opacity:.51;}.ew{fill:#f4f5f6;opacity:.04;}.ex{fill:#a9b1ba;opacity:.29;}.ey{fill:#8994a0;opacity:.4;}.f`{fill:#86929d;opacity:.41;}.fa{fill:#f5f6f7;opacity:.03;}.fb{fill:#5d6d7c;opacity:.55;}.fc{fill:#d8dce0;opacity:.13;}.fd{fill:#384b5f;opacity:.68;}.fe{fill:#3c4f62;opacity:.66;}.ff{fill:#d5d9dd;opacity:.14;}.fg{fill:#eaecee;opacity:.07;}.fh{fill:#506172;opacity:.59;}.fi{fill:#586878;opacity:.57;}.fj{fill:#dee1e4;opacity:.11;}.fk{fill:#6d7b89;opacity:.5;}.fl{fill:#405365;opacity:.65;}.fm{fill:#a8b0b9;opacity:.3;}.fn{fill:#b5bcc3;opacity:.25;}.fo{fill:#3e5163;opacity:.66;}.fp{fill:#8a95a1;opacity:.4;}.fq{fill:#516273;opacity:.59;}.fr{fill:#8d98a3;opacity:.39;}.fs{fill:#acb4bc;opacity:.28;}.ft{fill:#3f5264;opacity:.65;}.fu{fill:#778491;opacity:.46;}.fv{fill:#e4e7e9;opacity:.09;}.fw{fill:#425467;opacity:.64;}.fx{fill:#9ca6af;opacity:.34;}.fy{fill:#fafafb;opacity:.02;}.g`{fill:#c3c9cf;opacity:.2;}.ga{fill:#b7bec5;opacity:.24;}.gb{fill:#a1aab3;opacity:.32;}.gc{fill:#f6f7f8;opacity:.03;}.gd{fill:#7f8b98;opacity:.43;}.ge{fill:#bdc3ca;opacity:.22;}.gf{fill:#b6bdc4;opacity:.25;}.gg{fill:#eff1f2;opacity:.05;}.gh{fill:#7b8895;opacity:.45;}.gi{fill:#617080;opacity:.54;}.gj{fill:#d2d6db;opacity:.15;}.gk{fill:#939da8;opacity:.37;}.gl{fill:#808c99;opacity:.43;}.gm{fill:#32465a;opacity:.7;}.gn{fill:#576778;opacity:.57;}.go{fill:#c6ccd1;opacity:.19;}.gp{fill:#606f7f;opacity:.54;}.gq{fill:#cfd4d8;opacity:.16;}.gr{fill:#717f8d;opacity:.48;}.gs{fill:#e5e8ea;opacity:.09;}.gt{fill:#c2c8ce;opacity:.21;}.gu{fill:#f1f2f4;opacity:.05;}.gv{fill:#88949f;opacity:.4;}.gw{fill:#687785;opacity:.51;}.gx{fill:#d9dde0;opacity:.13;}.gy{mix-blend-mode:multiply;}.h`{fill:#fefefe;opacity:0;}.ha{fill:#b8bfc6;opacity:.24;}.hb{fill:#6c7a89;opacity:.5;}.hc{fill:#8c97a2;opacity:.39;}.hd{fill:#455769;opacity:.63;}.he{fill:#c0c6cc;opacity:.21;}.hf{fill:#6b7988;opacity:.5;}.hg{fill:#5a6a7a;opacity:.56;}.hh{fill:#a7b0b8;opacity:.3;}.hi{fill:#aeb6be;opacity:.28;}</style><linearGradient id="d" x1="6360.85" y1="-975.37" x2="6564.06" y2="-975.37" gradientTransform="translate(-857.96 -6358.35) rotate(90)" gradientUnits="userSpaceOnUse"><stop offset="0" stop-color="#fff"/><stop offset=".28" stop-color="#fafafb"/><stop offset=".6" stop-color="#edeef2"/><stop offset=".93" stop-color="#d7dae2"/><stop offset="1" stop-color="#d1d5de"/></linearGradient><linearGradient id="e" x1="13.3" y1="104.1" x2="221.51" y2="104.1" gradientTransform="matrix(1, 0, 0, 1, 0, 0)" xlink:href="#d"/></defs><g class="b`"><g id="a"/><g id="b"><g id="c"><g><g><g class="gy"><circle class="ao" cx="117.41" cy="137.25" r="117.41"/><circle class="h`" cx="117.41" cy="137.22" r="117.19"/><circle class="cd" cx="117.41" cy="137.19" r="116.97"/><circle class="bc" cx="117.41" cy="137.16" r="116.76"/><circle class="i" cx="117.41" cy="137.13" r="116.54"/><circle class="fy" cx="117.41" cy="137.1" r="116.32"/><circle class="ci" cx="117.41" cy="137.07" r="116.1"/><circle class="ch" cx="117.41" cy="137.03" r="115.89"/><circle class="aj" cx="117.41" cy="137" r="115.67"/><circle class="gc" cx="117.41" cy="136.97" r="115.45"/><circle class="fa" cx="117.41" cy="136.94" r="115.24"/><circle class="ew" cx="117.41" cy="136.91" r="115.02"/><circle class="ep" cx="117.41" cy="136.88" r="114.8"/><circle class="bk" cx="117.41" cy="136.85" r="114.59"/><circle class="gu" cx="117.41" cy="136.81" r="114.37"/><circle class="bx" cx="117.41" cy="136.78" r="114.15"/><circle class="gg" cx="117.41" cy="136.75" r="113.94"/><circle class="n" cx="117.41" cy="136.72" r="113.72"/><circle class="ai" cx="117.41" cy="136.69" r="113.5"/><circle class="bj" cx="117.41" cy="136.66" r="113.28"/><circle class="af" cx="117.41" cy="136.63" r="113.07"/><circle class="fg" cx="117.41" cy="136.6" r="112.85"/><circle class="cn" cx="117.41" cy="136.56" r="112.63"/><circle class="k" cx="117.41" cy="136.53" r="112.42"/><circle class="bn" cx="117.41" cy="136.5" r="112.2"/><circle class="dq" cx="117.41" cy="136.47" r="111.98"/><circle class="gs" cx="117.41" cy="136.44" r="111.77"/><circle class="fv" cx="117.41" cy="136.41" r="111.55"/><circle class="eg" cx="117.41" cy="136.38" r="111.33"/><circle class="aa" cx="117.41" cy="136.34" r="111.12"/><circle class="do" cx="117.41" cy="136.31" r="110.9"/><circle class="du" cx="117.41" cy="136.28" r="110.68"/><circle class="ej" cx="117.41" cy="136.25" r="110.46"/><circle class="fj" cx="117.41" cy="136.22" r="110.25"/><circle class="de" cx="117.41" cy="136.19" r="110.03"/><circle class="cf" cx="117.41" cy="136.16" r="109.81"/><circle class="br" cx="117.41" cy="136.13" r="109.6"/><circle class="dh" cx="117.41" cy="136.09" r="109.38"/><circle class="gx" cx="117.41" cy="136.06" r="109.16"/><circle class="fc" cx="117.41" cy="136.03" r="108.95"/><circle class="bh" cx="117.41" cy="136" r="108.73"/><circle class="ed" cx="117.41" cy="135.97" r="108.51"/><circle class="ff" cx="117.41" cy="135.94" r="108.3"/><circle class="ag" cx="117.41" cy="135.91" r="108.08"/><circle class="am" cx="117.41" cy="135.88" r="107.86"/><circle class="gj" cx="117.41" cy="135.84" r="107.65"/><circle class="cp" cx="117.41" cy="135.81" r="107.43"/><circle class="el" cx="117.41" cy="135.78" r="107.21"/><circle class="gq" cx="117.41" cy="135.75" r="106.99"/><circle class="as" cx="117.41" cy="135.72" r="106.78"/><circle class="cm" cx="117.41" cy="135.69" r="106.56"/><circle class="cl" cx="117.41" cy="135.66" r="106.34"/><circle class="dv" cx="117.41" cy="135.62" r="106.13"/><circle class="s" cx="117.41" cy="135.59" r="105.91"/><circle class="ei" cx="117.41" cy="135.56" r="105.69"/><circle class="be" cx="117.41" cy="135.53" r="105.48"/><circle class="cc" cx="117.41" cy="135.5" r="105.26"/><circle class="go" cx="117.41" cy="135.47" r="105.04"/><circle class="bu" cx="117.41" cy="135.44" r="104.83"/><circle class="ca" cx="117.41" cy="135.41" r="104.61"/><circle class="g`" cx="117.41" cy="135.37" r="104.39"/><circle class="gt" cx="117.41" cy="135.34" r="104.17"/><circle class="dj" cx="117.41" cy="135.31" r="103.96"/><circle class="he" cx="117.41" cy="135.28" r="103.74"/><circle class="ct" cx="117.41" cy="135.25" r="103.52"/><circle class="cs" cx="117.41" cy="135.22" r="103.31"/><circle class="ge" cx="117.41" cy="135.19" r="103.09"/><circle class="cw" cx="117.41" cy="135.15" r="102.87"/><circle class="au" cx="117.41" cy="135.12" r="102.66"/><circle class="bo" cx="117.41" cy="135.09" r="102.44"/><circle class="dt" cx="117.41" cy="135.06" r="102.22"/><circle class="ha" cx="117.41" cy="135.03" r="102.01"/><circle class="ga" cx="117.41" cy="135" r="101.79"/><circle class="gf" cx="117.41" cy="134.97" r="101.57"/><circle class="fn" cx="117.41" cy="134.94" r="101.35"/><circle class="bv" cx="117.41" cy="134.9" r="101.14"/><circle class="et" cx="117.41" cy="134.87" r="100.92"/><circle class="l" cx="117.41" cy="134.84" r="100.7"/><circle class="av" cx="117.41" cy="134.81" r="100.49"/><circle class="ap" cx="117.41" cy="134.78" r="100.27"/><circle class="d`" cx="117.41" cy="134.75" r="100.05"/><circle class="hi" cx="117.41" cy="134.72" r="99.84"/><circle class="ea" cx="117.41" cy="134.68" r="99.62"/><circle class="fs" cx="117.41" cy="134.65" r="99.4"/><circle class="bd" cx="117.41" cy="134.62" r="99.19"/><circle class="bp" cx="117.41" cy="134.59" r="98.97"/><circle class="ex" cx="117.41" cy="134.56" r="98.75"/><circle class="fm" cx="117.41" cy="134.53" r="98.53"/><circle class="hh" cx="117.41" cy="134.5" r="98.32"/><circle class="w" cx="117.41" cy="134.47" r="98.1"/><circle class="m" cx="117.41" cy="134.43" r="97.88"/><circle class="dy" cx="117.41" cy="134.4" r="97.67"/><circle class="dd" cx="117.41" cy="134.37" r="97.45"/><circle class="bi" cx="117.41" cy="134.34" r="97.23"/><circle class="gb" cx="117.41" cy="134.31" r="97.02"/><circle class="bq" cx="117.41" cy="134.28" r="96.8"/><circle class="g" cx="117.41" cy="134.25" r="96.58"/><circle class="dn" cx="117.41" cy="134.21" r="96.37"/><circle class="dk" cx="117.41" cy="134.18" r="96.15"/><circle class="fx" cx="117.41" cy="134.15" r="95.93"/><circle class="ce" cx="117.41" cy="134.12" r="95.71"/><circle class="cr" cx="117.41" cy="134.09" r="95.5"/><circle class="al" cx="117.41" cy="134.06" r="95.28"/><circle class="r" cx="117.41" cy="134.03" r="95.06"/><circle class="dm" cx="117.41" cy="134" r="94.85"/><circle class="cq" cx="117.41" cy="133.96" r="94.63"/><circle class="eq" cx="117.41" cy="133.93" r="94.41"/><circle class="bw" cx="117.41" cy="133.9" r="94.2"/><circle class="gk" cx="117.41" cy="133.87" r="93.98"/><circle class="eb" cx="117.41" cy="133.84" r="93.76"/><circle class="dg" cx="117.41" cy="133.81" r="93.55"/><circle class="di" cx="117.41" cy="133.78" r="93.33"/><circle class="an" cx="117.41" cy="133.74" r="93.11"/><circle class="cg" cx="117.41" cy="133.71" r="92.89"/><circle class="fr" cx="117.41" cy="133.68" r="92.68"/><circle class="hc" cx="117.41" cy="133.65" r="92.46"/><circle class="dp" cx="117.41" cy="133.62" r="92.24"/><circle class="fp" cx="117.41" cy="133.59" r="92.03"/><circle class="ey" cx="117.41" cy="133.56" r="91.81"/><circle class="gv" cx="117.41" cy="133.53" r="91.59"/><circle class="q" cx="117.41" cy="133.49" r="91.38"/><circle class="f`" cx="117.41" cy="133.46" r="91.16"/><circle class="v" cx="117.41" cy="133.43" r="90.94"/><circle class="aq" cx="117.41" cy="133.4" r="90.73"/><circle class="bb" cx="117.41" cy="133.37" r="90.51"/><circle class="aw" cx="117.41" cy="133.34" r="90.29"/><circle class="er" cx="117.41" cy="133.31" r="90.07"/><circle class="gl" cx="117.41" cy="133.27" r="89.86"/><circle class="gd" cx="117.41" cy="133.24" r="89.64"/><circle class="em" cx="117.41" cy="133.21" r="89.42"/><circle class="bs" cx="117.41" cy="133.18" r="89.21"/><circle class="dw" cx="117.41" cy="133.15" r="88.99"/><circle class="gh" cx="117.41" cy="133.12" r="88.77"/><circle class="es" cx="117.41" cy="133.09" r="88.56"/><circle class="eu" cx="117.41" cy="133.06" r="88.34"/><circle class="x" cx="117.41" cy="133.02" r="88.12"/><circle class="fu" cx="117.41" cy="132.99" r="87.91"/><circle class="da" cx="117.41" cy="132.96" r="87.69"/><circle class="dr" cx="117.41" cy="132.93" r="87.47"/><circle class="ay" cx="117.41" cy="132.9" r="87.25"/><circle class="ax" cx="117.41" cy="132.87" r="87.04"/><circle class="ec" cx="117.41" cy="132.84" r="86.82"/><circle class="gr" cx="117.41" cy="132.8" r="86.6"/><circle class="ar" cx="117.41" cy="132.77" r="86.39"/><circle class="df" cx="117.41" cy="132.74" r="86.17"/><circle class="ba" cx="117.41" cy="132.71" r="85.95"/><circle class="fk" cx="117.41" cy="132.68" r="85.74"/><circle class="hb" cx="117.41" cy="132.65" r="85.52"/><circle class="hf" cx="117.41" cy="132.62" r="85.3"/><circle class="ev" cx="117.41" cy="132.59" r="85.09"/><circle class="bf" cx="117.41" cy="132.55" r="84.87"/><circle class="gw" cx="117.41" cy="132.52" r="84.65"/><circle class="at" cx="117.41" cy="132.49" r="84.43"/><circle class="dx" cx="117.41" cy="132.46" r="84.22"/><circle class="cj" cx="117.41" cy="132.43" r="84"/><circle class="ak" cx="117.41" cy="132.4" r="83.78"/><circle class="t" cx="117.41" cy="132.37" r="83.57"/><circle class="bg" cx="117.41" cy="132.33" r="83.35"/><circle class="gi" cx="117.41" cy="132.3" r="83.13"/><circle class="gp" cx="117.41" cy="132.27" r="82.92"/><circle class="ae" cx="117.41" cy="132.24" r="82.7"/><circle class="ck" cx="117.41" cy="132.21" r="82.48"/><circle class="fb" cx="117.41" cy="132.18" r="82.27"/><circle class="by" cx="117.41" cy="132.15" r="82.05"/><circle class="dl" cx="117.41" cy="132.12" r="81.83"/><circle class="hg" cx="117.41" cy="132.08" r="81.61"/><circle class="ee" cx="117.41" cy="132.05" r="81.4"/><circle class="fi" cx="117.41" cy="132.02" r="81.18"/><circle class="gn" cx="117.41" cy="131.99" r="80.96"/><circle class="f" cx="117.41" cy="131.96" r="80.75"/><circle class="cx" cx="117.41" cy="131.93" r="80.53"/><circle class="eh" cx="117.41" cy="131.9" r="80.31"/><circle class="u" cx="117.41" cy="131.87" r="80.1"/><circle class="cv" cx="117.41" cy="131.83" r="79.88"/><circle class="fq" cx="117.41" cy="131.8" r="79.66"/><circle class="fh" cx="117.41" cy="131.77" r="79.45"/><circle class="cu" cx="117.41" cy="131.74" r="79.23"/><circle class="ah" cx="117.41" cy="131.71" r="79.01"/><circle class="o" cx="117.41" cy="131.68" r="78.79"/><circle class="p" cx="117.41" cy="131.65" r="78.58"/><circle class="ef" cx="117.41" cy="131.61" r="78.36"/><circle class="co" cx="117.41" cy="131.58" r="78.14"/><circle class="bt" cx="117.41" cy="131.55" r="77.93"/><circle class="bl" cx="117.41" cy="131.52" r="77.71"/><circle class="eo" cx="117.41" cy="131.49" r="77.49"/><circle class="c`" cx="117.41" cy="131.46" r="77.28"/><circle class="hd" cx="117.41" cy="131.43" r="77.06"/><circle class="en" cx="117.41" cy="131.4" r="76.84"/><circle class="ac" cx="117.41" cy="131.36" r="76.63"/><circle class="fw" cx="117.41" cy="131.33" r="76.41"/><circle class="cy" cx="117.41" cy="131.3" r="76.19"/><circle class="fl" cx="117.41" cy="131.27" r="75.97"/><circle class="ft" cx="117.41" cy="131.24" r="75.76"/><circle class="fo" cx="117.41" cy="131.21" r="75.54"/><circle class="dc" cx="117.41" cy="131.18" r="75.32"/><circle class="fe" cx="117.41" cy="131.14" r="75.11"/><circle class="j" cx="117.41" cy="131.11" r="74.89"/><circle class="ek" cx="117.41" cy="131.08" r="74.67"/><circle class="e`" cx="117.41" cy="131.05" r="74.46"/><circle class="fd" cx="117.41" cy="131.02" r="74.24"/><circle class="h" cx="117.41" cy="130.99" r="74.02"/><circle class="db" cx="117.41" cy="130.96" r="73.81"/><circle class="cb" cx="117.41" cy="130.93" r="73.59"/><circle class="ds" cx="117.41" cy="130.89" r="73.37"/><circle class="ad" cx="117.41" cy="130.86" r="73.16"/><circle class="gm" cx="117.41" cy="130.83" r="72.94"/><circle class="ab" cx="117.41" cy="130.8" r="72.72"/></g><circle class="y" cx="117.41" cy="104.1" r="101.6"/></g><g><path class="bm" d="M57.11,49.6v99.17s5.9-6.21,16.68-7.93,16.45-.34,16.45-.34l-22.19-21.11,5.63-6.6,7.95,.67,13.62,13.42,5.45-4.43V63.51l4.34-4.51h5.81l3.64-3.19,2.93-4.6,7.66-.77,3.45,5.49v2.99l7.79-3.37,4.98,4.85-.51,12.63,6.64-5.1,4.83,1.79,2.83,6.51-2.83,65.49,15.73-.38V35.64H70.27l-10.44,6.73-2.72,7.22Z"/><g><path class="a`" d="M112.54,57.24c.07-5.6,4.42-8.57,7.71-9.02,2.31-.32,4.43,.15,6.34,1.52,1.9,1.36,2.97,3.27,3.6,5.46,.94-.32,1.79-.71,2.69-.91,5.32-1.16,10.35,2.71,10.62,8.17,.06,1.13,.01,2.26,.01,3.39,0,.29,0,.58,0,.74,1.48-.26,2.86-.67,4.26-.73,4.71-.2,8.61,3.68,8.72,8.49,.11,5.01-.03,10.02-.02,15.03,0,5.48,.05,10.96,.06,16.43,.01,5.62,.04,11.23,0,16.85-.05,7.26-.89,14.43-2.53,21.5-1.09,4.7-2.5,9.29-4.19,13.8-.14,.37-.15,.81-.15,1.22,0,4.87,0,9.75,0,14.62,0,.3,0,.6,0,.97h-46.5c-.02-.38-.06-.73-.07-1.08,0-4.68-.02-9.36,0-14.04,0-1.2-.38-2.21-1.22-3.05-3.32-3.33-6.65-6.65-9.97-9.98-1.87-1.87-3.74-3.73-5.6-5.6-.6-.6-1.12-1.28-1.71-1.89-.39-.4-.87-.71-1.25-1.11-.26-.27-.38-.67-.62-.97-.25-.3-.55-.55-.85-.81-.61-.53-1.24-1.03-1.83-1.57-.77-.71-1.51-1.44-2.25-2.17-.87-.86-1.72-1.74-2.58-2.61-2.9-2.9-5.8-5.78-8.69-8.69-1.88-1.89-1.8-4.76,.22-6.5,1.27-1.09,2.51-2.28,3.94-3.1,4.26-2.43,9.43-1.68,12.97,1.68,3.85,3.66,7.71,7.3,11.53,10.99,.6,.58,.97,.51,1.46-.05,.31-.35,.67-.66,1.02-.96,1.1-.93,1.63-2.1,1.62-3.54,0-9.16,0-18.33,0-27.49,0-9.11,0-18.22,0-27.33,0-6.42,6.29-10.58,12.22-8.1,.32,.13,.64,.28,1.05,.45Zm-43.16,60.82c.29,.32,.5,.58,.73,.81,2.55,2.54,5.11,5.08,7.66,7.63,1.56,1.55,3.12,3.1,4.66,4.67,1.7,1.72,3.37,3.46,5.07,5.18,.61,.62,1.3,1.16,1.91,1.77,2.56,2.53,5.12,5.08,7.67,7.62,2.71,2.7,5.43,5.38,8.09,8.13,1.34,1.39,2.11,3.1,2.14,5.06,.05,3.6,.04,7.21,.01,10.82,0,.67,.21,.85,.85,.84,3.77-.02,7.54,0,11.31,0,8.32,0,16.63-.01,24.95,0,.71,0,.95-.17,.94-.91-.04-3.14,.04-6.28-.04-9.42-.04-1.8,.29-3.45,.92-5.13,4.02-10.76,5.96-21.91,5.97-33.39,.02-12.09,0-24.18,0-36.27,0-3.72,.02-7.44-.07-11.15-.06-2.68-2.36-4.53-5-4.19-1.8,.23-3.67,2.03-3.7,3.69-.05,3-.04,6-.04,9,0,5.48,0,10.96,.02,16.44,0,.5-.17,.69-.67,.68-.99-.02-1.98-.02-2.97,0-.53,.01-.65-.23-.65-.7,0-6.3,0-12.59,0-18.89,.01-5.7,.06-11.39,.09-17.09,0-.38-.03-.77-.1-1.15-.41-2.26-2.33-3.84-4.55-3.75-2.48,.1-4.28,2.07-4.28,4.73,0,7.96,0,15.92,0,23.87,0,4.02-.01,8.04,.02,12.06,0,.66-.17,.95-.87,.91-.85-.05-1.71-.04-2.56,0-.66,.04-.85-.2-.84-.85,.03-3.22,.01-6.44,.01-9.65,0-9.64,0-19.28,0-28.91,0-1.29,.05-2.59-.04-3.88-.17-2.51-2.54-4.51-4.9-4.2-2.52,.32-4.22,2.22-4.22,4.77,0,13.77,0,27.54,0,41.31,0,.3,.05,.62-.03,.9-.05,.19-.28,.46-.43,.46-1.23,.04-2.46,.02-3.8,.02v-1.06c0-3.63,0-7.27,0-10.9,0-7.52,0-15.04,0-22.55,0-2.61-1.74-4.71-4.12-5-2.73-.34-4.94,1.8-4.94,4.78,0,10.26,.02,20.52,0,30.78-.01,5.8-.09,11.61-.11,17.41,0,2.28,.11,4.56,.1,6.83,0,2.09-.78,3.92-2.19,5.46-.74,.81-1.56,1.55-2.35,2.32-1.67,1.63-4.24,1.71-5.99,.16-1.23-1.1-2.42-2.24-3.61-3.38-3.01-2.86-5.98-5.76-9.03-8.58-1.66-1.54-3.69-1.95-5.92-1.5-2.14,.43-3.46,2.02-5.09,3.4Z"/><path class="a`" d="M169.62,143.58h-8.65v-4.23c1.19,0,2.34-.05,3.48,.02,.76,.04,.91-.25,.91-.95-.02-8.26-.01-16.52-.01-24.78,0-20.35,0-40.69,0-61.04,0-4.65-.01-9.31,.02-13.96,0-.67-.18-.9-.88-.9-14.29,.01-28.58,0-42.87,0-5.72,0-11.45-.04-17.17-.04-10.57,0-21.15,0-31.72,.04-7.45,.03-13.2,5.91-13.2,13.42,0,15.31,.01,30.62,.02,45.93,0,4.6,0,9.2,0,13.79,0,10.9,0,21.8,0,32.7,0,.37,0,.74,0,1.29,.81-.7,1.45-1.28,2.12-1.84,3.15-2.61,6.8-3.91,10.87-3.95,1.48-.02,2.96,.11,4.45,.12,1.21,0,2.41-.07,3.62-.14,.54-.03,.74,.16,.72,.7-.03,.8,0,1.6,0,2.4-.01,.96-.22,1.16-1.18,1.16-2.42,0-4.85,0-7.27,0-6.44,.01-11.74,4.3-13.06,10.58-1.19,5.62,1.7,11.41,6.55,14.01,2.11,1.14,4.34,1.66,6.73,1.66,8.43-.02,16.85,0,25.28,0q1.08,0,1.07,1.07c0,.83-.02,1.65,0,2.48,.01,.53-.19,.77-.73,.71-.22-.02-.44,0-.66,0-8.37,0-16.74,0-25.11,0-10,0-17.66-7.62-17.66-17.6,0-15.89-.01-31.78-.01-47.67,0-19.02,.01-38.05,0-57.07,0-3.17,.56-6.2,2.13-8.97,2.96-5.22,7.44-8.33,13.4-8.88,3.85-.35,7.76-.16,11.64-.17,5.67-.02,11.34,0,17.02,0,8.04,0,16.08,.01,24.11,.02,12.33,0,24.67,0,37,0,2.72,0,5.44,.04,8.17,.01,.73,0,.93,.23,.93,.95-.02,22.38,0,44.77-.01,67.15,0,13.63-.01,27.25-.02,40.88,0,.33,0,.66,0,1.08Z"/><path class="a`" d="M72.38,103.7h-4.19c0-.35,0-.65,0-.94,0-13.9,0-27.81,0-41.71,0-5.89,.01-11.78-.02-17.67,0-.81,.24-1.05,1.03-1,1.04,.06,2.08,.02,3.19,.02v61.31Z"/><path class="a`" d="M90.24,150.31v4.18h-22.17c0-1.27-.02-2.5,.02-3.72,0-.16,.27-.39,.45-.43,.31-.07,.66-.02,.99-.02,6.57,0,13.14,0,19.72,0,.3,0,.6,0,1,0Z"/><path class="a`" d="M90.23,159.15v4.15c-.35,.02-.67,.05-.99,.05-6.74,0-13.48,0-20.23,.02-.77,0-1.02-.22-.96-.98,.07-.85,.04-1.71,0-2.56-.03-.59,.2-.74,.77-.74,4.65,.02,9.3,.02,13.95,.02,2.12,0,4.24-.01,6.36-.01,.35,0,.7,.03,1.09,.05Z"/><path class="a`" d="M154.49,170.14h14.99c0,1.31,.02,2.59-.03,3.86,0,.13-.49,.34-.75,.34-3.85,.02-7.69,.01-11.54,.01-.87,0-1.74,0-2.66,0v-4.22Z"/><path class="a`" d="M156.49,154.55c0-1.33-.02-2.58,.03-3.84,0-.14,.36-.39,.56-.39,2.45-.03,4.89,0,7.34-.02,.5,0,.68,.2,.67,.69-.02,.99,.02,1.98-.03,2.97-.01,.21-.29,.57-.46,.57-2.66,.04-5.32,.03-8.11,.03Z"/><path class="a`" d="M160.85,159.12c1.16,0,2.31,.02,3.47,0,.56-.01,.8,.14,.77,.75-.05,.93-.03,1.87,0,2.8,.01,.48-.13,.7-.65,.69-2.42-.02-4.84-.01-7.26,0-.48,0-.71-.14-.7-.66,.03-.96,.03-1.93,0-2.89-.01-.56,.24-.71,.75-.7,1.21,.02,2.42,0,3.63,0Z"/></g></g></g></g></g></g></svg>