<?xml version="1.0" encoding="UTF-8"?><svg xmlns="http://www.w3.org/2000/svg" viewBox="0 0 114.81 141.72"><defs><style>.d{fill:#2d62fe;stroke:#2d62fe;stroke-miterlimit:10;stroke-width:.41px;}.e{fill:#0145fe;}</style></defs><g id="a"/><g id="b"><g id="c"><g><path class="e" d="M2.06,16.35V115.52s5.9-6.21,16.68-7.93,16.45-.34,16.45-.34l-22.19-21.11,5.63-6.6,7.95,.67,13.62,13.42,5.45-4.43V30.27l4.34-4.51h5.81l3.64-3.19,2.93-4.6,7.66-.77,3.45,5.49v2.99l7.79-3.37,4.98,4.85-.51,12.63,6.64-5.1,4.83,1.79,2.83,6.51-2.83,65.49,15.73-.38V2.39H15.22L4.79,9.13l-2.72,7.22Z"/><g><path class="d" d="M57.49,23.99c.07-5.6,4.42-8.57,7.71-9.02,2.31-.32,4.43,.15,6.34,1.52,1.9,1.36,2.97,3.27,3.6,5.46,.94-.32,1.79-.71,2.69-.91,5.32-1.16,10.35,2.71,10.62,8.17,.06,1.13,.01,2.26,.01,3.39,0,.29,0,.58,0,.74,1.48-.26,2.86-.67,4.26-.73,4.71-.2,8.61,3.68,8.72,8.49,.11,5.01-.03,10.02-.02,15.03,0,5.48,.05,10.96,.06,16.43,.01,5.62,.04,11.23,0,16.85-.05,7.26-.89,14.43-2.53,21.5-1.09,4.7-2.5,9.29-4.19,13.8-.14,.37-.15,.81-.15,1.22,0,4.87,0,9.75,0,14.62,0,.3,0,.6,0,.97H48.08c-.02-.38-.06-.73-.07-1.08,0-4.68-.02-9.36,0-14.04,0-1.2-.38-2.21-1.22-3.05-3.32-3.33-6.65-6.65-9.97-9.98-1.87-1.87-3.74-3.73-5.6-5.6-.6-.6-1.12-1.28-1.71-1.89-.39-.4-.87-.71-1.25-1.11-.26-.27-.38-.67-.62-.97-.25-.3-.55-.55-.85-.81-.61-.53-1.24-1.03-1.83-1.57-.77-.71-1.51-1.44-2.25-2.17-.87-.86-1.72-1.74-2.58-2.61-2.9-2.9-5.8-5.78-8.69-8.69-1.88-1.89-1.8-4.76,.22-6.5,1.27-1.09,2.51-2.28,3.94-3.1,4.26-2.43,9.43-1.68,12.97,1.68,3.85,3.66,7.71,7.3,11.53,10.99,.6,.58,.97,.51,1.46-.05,.31-.35,.67-.66,1.02-.96,1.1-.93,1.63-2.1,1.62-3.54,0-9.16,0-18.33,0-27.49,0-9.11,0-18.22,0-27.33,0-6.42,6.29-10.58,12.22-8.1,.32,.13,.64,.28,1.05,.45ZM14.32,84.81c.29,.32,.5,.58,.73,.81,2.55,2.54,5.11,5.08,7.66,7.63,1.56,1.55,3.12,3.1,4.66,4.67,1.7,1.72,3.37,3.46,5.07,5.18,.61,.62,1.3,1.16,1.91,1.77,2.56,2.53,5.12,5.08,7.67,7.62,2.71,2.7,5.43,5.38,8.09,8.13,1.34,1.39,2.11,3.1,2.14,5.06,.05,3.6,.04,7.21,.01,10.82,0,.67,.21,.85,.85,.84,3.77-.02,7.54,0,11.31,0,8.32,0,16.63-.01,24.95,0,.71,0,.95-.17,.94-.91-.04-3.14,.04-6.28-.04-9.42-.04-1.8,.29-3.45,.92-5.13,4.02-10.76,5.96-21.91,5.97-33.39,.02-12.09,0-24.18,0-36.27,0-3.72,.02-7.44-.07-11.15-.06-2.68-2.36-4.53-5-4.19-1.8,.23-3.67,2.03-3.7,3.69-.05,3-.04,6-.04,9,0,5.48,0,10.96,.02,16.44,0,.5-.17,.69-.67,.68-.99-.02-1.98-.02-2.97,0-.53,.01-.65-.23-.65-.7,0-6.3,0-12.59,0-18.89,.01-5.7,.06-11.39,.09-17.09,0-.38-.03-.77-.1-1.15-.41-2.26-2.33-3.84-4.55-3.75-2.48,.1-4.28,2.07-4.28,4.73,0,7.96,0,15.92,0,23.87,0,4.02-.01,8.04,.02,12.06,0,.66-.17,.95-.87,.91-.85-.05-1.71-.04-2.56,0-.66,.04-.85-.2-.84-.85,.03-3.22,.01-6.44,.01-9.65,0-9.64,0-19.28,0-28.91,0-1.29,.05-2.59-.04-3.88-.17-2.51-2.54-4.51-4.9-4.2-2.52,.32-4.22,2.22-4.22,4.77,0,13.77,0,27.54,0,41.31,0,.3,.05,.62-.03,.9-.05,.19-.28,.46-.43,.46-1.23,.04-2.46,.02-3.8,.02v-1.06c0-3.63,0-7.27,0-10.9,0-7.52,0-15.04,0-22.55,0-2.61-1.74-4.71-4.12-5-2.73-.34-4.94,1.8-4.94,4.78,0,10.26,.02,20.52,0,30.78-.01,5.8-.09,11.61-.11,17.41,0,2.28,.11,4.56,.1,6.83,0,2.09-.78,3.92-2.19,5.46-.74,.81-1.56,1.55-2.35,2.32-1.67,1.63-4.24,1.71-5.99,.16-1.23-1.1-2.42-2.24-3.61-3.38-3.01-2.86-5.98-5.76-9.03-8.58-1.66-1.54-3.69-1.95-5.92-1.5-2.14,.43-3.46,2.02-5.09,3.4Z"/><path class="d" d="M114.58,110.34h-8.65v-4.23c1.19,0,2.34-.05,3.48,.02,.76,.04,.91-.25,.91-.95-.02-8.26-.01-16.52-.01-24.78,0-20.35,0-40.69,0-61.04,0-4.65-.01-9.31,.02-13.96,0-.67-.18-.9-.88-.9-14.29,.01-28.58,0-42.87,0-5.72,0-11.45-.04-17.17-.04-10.57,0-21.15,0-31.72,.04-7.45,.03-13.2,5.91-13.2,13.42,0,15.31,.01,30.62,.02,45.93,0,4.6,0,9.2,0,13.79,0,10.9,0,21.8,0,32.7,0,.37,0,.74,0,1.29,.81-.7,1.45-1.28,2.12-1.84,3.15-2.61,6.8-3.91,10.87-3.95,1.48-.02,2.96,.11,4.45,.12,1.21,0,2.41-.07,3.62-.14,.54-.03,.74,.16,.72,.7-.03,.8,0,1.6,0,2.4-.01,.96-.22,1.16-1.18,1.16-2.42,0-4.85,0-7.27,0-6.44,.01-11.74,4.3-13.06,10.58-1.19,5.62,1.7,11.41,6.55,14.01,2.11,1.14,4.34,1.66,6.73,1.66,8.43-.02,16.85,0,25.28,0q1.08,0,1.07,1.07c0,.83-.02,1.65,0,2.48,.01,.53-.19,.77-.73,.71-.22-.02-.44,0-.66,0-8.37,0-16.74,0-25.11,0-10,0-17.66-7.62-17.66-17.6,0-15.89-.01-31.78-.01-47.67,0-19.02,.01-38.05,0-57.07,0-3.17,.56-6.2,2.13-8.97C5.3,4.08,9.78,.97,15.74,.42c3.85-.35,7.76-.16,11.64-.17,5.67-.02,11.34,0,17.02,0,8.04,0,16.08,.01,24.11,.02,12.33,0,24.67,0,37,0,2.72,0,5.44,.04,8.17,.01,.73,0,.93,.23,.93,.95-.02,22.38,0,44.77-.01,67.15,0,13.63-.01,27.25-.02,40.88,0,.33,0,.66,0,1.08Z"/><path class="d" d="M17.33,70.46h-4.19c0-.35,0-.65,0-.94,0-13.9,0-27.81,0-41.71,0-5.89,.01-11.78-.02-17.67,0-.81,.24-1.05,1.03-1,1.04,.06,2.08,.02,3.19,.02v61.31Z"/><path class="d" d="M35.19,117.06v4.18H13.02c0-1.27-.02-2.5,.02-3.72,0-.16,.27-.39,.45-.43,.31-.07,.66-.02,.99-.02,6.57,0,13.14,0,19.72,0,.3,0,.6,0,1,0Z"/><path class="d" d="M35.18,125.9v4.15c-.35,.02-.67,.05-.99,.05-6.74,0-13.48,0-20.23,.02-.77,0-1.02-.22-.96-.98,.07-.85,.04-1.71,0-2.56-.03-.59,.2-.74,.77-.74,4.65,.02,9.3,.02,13.95,.02,2.12,0,4.24-.01,6.36-.01,.35,0,.7,.03,1.09,.05Z"/><path class="d" d="M99.44,136.9h14.99c0,1.31,.02,2.59-.03,3.86,0,.13-.49,.34-.75,.34-3.85,.02-7.69,.01-11.54,.01-.87,0-1.74,0-2.66,0v-4.22Z"/><path class="d" d="M101.44,121.31c0-1.33-.02-2.58,.03-3.84,0-.14,.36-.39,.56-.39,2.45-.03,4.89,0,7.34-.02,.5,0,.68,.2,.67,.69-.02,.99,.02,1.98-.03,2.97-.01,.21-.29,.57-.46,.57-2.66,.04-5.32,.03-8.11,.03Z"/><path class="d" d="M105.81,125.87c1.16,0,2.31,.02,3.47,0,.56-.01,.8,.14,.77,.75-.05,.93-.03,1.87,0,2.8,.01,.48-.13,.7-.65,.69-2.42-.02-4.84-.01-7.26,0-.48,0-.71-.14-.7-.66,.03-.96,.03-1.93,0-2.89-.01-.56,.24-.71,.75-.7,1.21,.02,2.42,0,3.63,0Z"/></g></g></g></g></svg>