<?xml version="1.0" encoding="UTF-8"?><svg xmlns="http://www.w3.org/2000/svg" xmlns:xlink="http://www.w3.org/1999/xlink" viewBox="0 0 144.84 30.8"><defs><style>.f{fill:#fff;}.g{fill:#f21170;}.h{filter:url(#d);}.i{fill:#194afb;}</style><filter id="d" filterUnits="userSpaceOnUse"><feOffset dx="5" dy="5"/><feGaussianBlur result="e" stdDeviation="3"/><feFlood flood-color="#190f49" flood-opacity=".45"/><feComposite in2="e" operator="in"/><feComposite in="SourceGraphic"/></filter></defs><g id="a"/><g id="b"><g id="c"><g class="h"><g><path class="f" d="M29.32,1.83c1.86,.88,3.3,2.13,4.31,3.74,1.01,1.62,1.51,3.53,1.51,5.74s-.5,4.09-1.51,5.72c-1.01,1.63-2.44,2.88-4.31,3.74-1.86,.87-4.06,1.3-6.59,1.3h-5.76v7.07c0,.63-.51,1.14-1.14,1.14h-4.33c-.63,0-1.14-.51-1.14-1.14V1.65c0-.63,.51-1.14,1.14-1.14h11.23c2.53,0,4.73,.44,6.59,1.32Zm-2.43,13.29c1.03-.89,1.55-2.16,1.55-3.81s-.52-2.96-1.55-3.85c-1.03-.89-2.54-1.34-4.53-1.34h-5.39v10.34h5.39c1.99,0,3.5-.45,4.53-1.34Z"/><path class="f" d="M55.92,30.01l-5.15-7.75c-.11-.17-.3-.27-.51-.27h-5.76v7.69c0,.34-.27,.61-.61,.61h-5.39c-.34,0-.61-.27-.61-.61V1.12c0-.34,.27-.61,.61-.61h11.76c2.53,0,4.73,.44,6.59,1.32,1.86,.88,3.3,2.13,4.31,3.74,1.01,1.62,1.51,3.53,1.51,5.74s-.51,4.12-1.53,5.72c-1.02,1.6-2.47,2.83-4.35,3.68l5.77,8.62c.27,.4-.02,.95-.51,.95h-5.63c-.2,0-.39-.1-.51-.27Zm-1.49-22.55c-1.03-.89-2.54-1.34-4.53-1.34h-5.39v10.38h5.39c1.99,0,3.5-.45,4.53-1.36,1.03-.91,1.55-2.18,1.55-3.83s-.52-2.96-1.55-3.85Z"/><path class="f" d="M72.45,28.8c-2.38-1.33-4.25-3.17-5.59-5.51-1.35-2.34-2.02-4.97-2.02-7.89s.67-5.55,2.02-7.89c1.35-2.34,3.21-4.18,5.59-5.51,2.38-1.33,5.05-2,8.02-2s5.63,.67,8,2c2.37,1.33,4.23,3.17,5.59,5.51,1.36,2.34,2.04,4.97,2.04,7.89s-.68,5.55-2.04,7.89c-1.36,2.34-3.22,4.18-5.59,5.51-2.37,1.33-5.03,2-8,2s-5.64-.67-8.02-2Zm12.59-5.08c1.36-.81,2.43-1.94,3.2-3.38,.78-1.45,1.16-3.09,1.16-4.93s-.39-3.49-1.16-4.93c-.78-1.45-1.84-2.57-3.2-3.38-1.36-.81-2.88-1.21-4.57-1.21s-3.21,.4-4.57,1.21c-1.36,.81-2.43,1.94-3.2,3.38-.78,1.45-1.16,3.09-1.16,4.93s.39,3.49,1.16,4.93c.78,1.45,1.84,2.57,3.2,3.38,1.36,.81,2.88,1.21,4.57,1.21s3.21-.4,4.57-1.21Z"/></g><g><path class="i" d="M118.96,25.81v3.33c0,.63-.51,1.14-1.14,1.14h-19.31c-.63,0-1.14-.51-1.14-1.14v-2.84c0-.31,.12-.6,.34-.81l10.68-10.51c1.17-1.16,1.96-2.16,2.37-3,.41-.84,.61-1.67,.61-2.49,0-1.19-.39-2.11-1.16-2.74-.78-.64-1.91-.96-3.41-.96-1.25,0-2.38,.25-3.39,.74-.72,.36-1.36,.84-1.91,1.45-.39,.43-1.02,.52-1.5,.2l-2.95-1.98c-.56-.38-.67-1.16-.24-1.68,1.02-1.25,2.31-2.26,3.87-3.04,1.96-.98,4.2-1.47,6.74-1.47,2.12,0,3.98,.36,5.57,1.08,1.59,.72,2.83,1.74,3.71,3.06,.88,1.32,1.33,2.87,1.33,4.66,0,1.62-.33,3.13-.98,4.55-.65,1.42-1.92,3.03-3.8,4.85l-6.57,6.47h11.14c.63,0,1.14,.51,1.14,1.14Z"/><path class="i" d="M126.27,28.97c-1.85-1.22-3.3-2.98-4.35-5.3-1.05-2.31-1.57-5.07-1.57-8.27s.52-5.96,1.57-8.27c1.05-2.31,2.5-4.08,4.35-5.3,1.85-1.22,3.96-1.83,6.33-1.83s4.48,.61,6.33,1.83c1.85,1.22,3.3,2.98,4.35,5.3,1.05,2.31,1.57,5.07,1.57,8.27s-.52,5.96-1.57,8.27c-1.05,2.31-2.5,4.08-4.35,5.3-1.85,1.22-3.96,1.83-6.33,1.83s-4.48-.61-6.33-1.83Zm10.43-6.34c.99-1.56,1.49-3.97,1.49-7.23s-.5-5.67-1.49-7.23c-.99-1.56-2.36-2.34-4.1-2.34s-3.07,.78-4.06,2.34c-.99,1.56-1.49,3.97-1.49,7.23s.5,5.67,1.49,7.23c.99,1.56,2.35,2.34,4.06,2.34s3.11-.78,4.1-2.34Z"/></g><circle class="g" cx="3.43" cy="26.83" r="3.43"/></g></g></g></svg>