<?xml version="1.0" encoding="UTF-8"?><svg xmlns="http://www.w3.org/2000/svg" xmlns:xlink="http://www.w3.org/1999/xlink" viewBox="0 0 234.81 254.66"><defs><style>.g{fill:#566677;opacity:.57;}.h{fill:#9fa8b2;opacity:.33;}.i{fill:#374a5e;opacity:.68;}.j{fill:#fbfbfc;opacity:.01;}.k{fill:#3b4e61;opacity:.67;}.l{fill:#e8eaec;opacity:.08;}.m{fill:#b2b9c1;opacity:.26;}.n{fill:#a5aeb6;opacity:.31;}.o{fill:#eef0f1;opacity:.06;}.p,.q,.r{fill:#fff;}.s{fill:#4d5e70;opacity:.6;}.t{fill:#4c5d6f;opacity:.61;}.u{fill:#87939e;opacity:.41;}.v{fill:#98a2ac;opacity:.35;}.w{fill:#cacfd4;opacity:.18;}.x{fill:#637281;opacity:.53;}.y{fill:#536474;opacity:.58;}.a`{fill:#85919d;opacity:.41;}.aa{fill:#a6afb7;opacity:.3;}.ab{fill:#788592;opacity:.46;}.ac{fill:url(#d);stroke:url(#e);stroke-width:5px;}.ac,.r{stroke-miterlimit:10;}.ad{fill:#e2e5e8;opacity:.1;}.ae{fill:#314559;opacity:.7;}.af{fill:#435568;opacity:.64;}.ag{fill:#33475b;opacity:.69;}.ah{fill:#5f6f7e;opacity:.54;}.ai{fill:#ebedef;opacity:.07;}.aj{fill:#d4d8dc;opacity:.15;}.ak{fill:#4e5f70;opacity:.6;}.al{fill:#edeff0;opacity:.06;}.am{fill:#f7f8f9;opacity:.03;}.an{fill:#647382;opacity:.53;}.ao{fill:#99a3ad;opacity:.35;}.ap{fill:#d3d7dc;opacity:.15;}.aq{fill:#8f9aa5;opacity:.38;}.q{opacity:0;}.ar{fill:#b0b8bf;opacity:.27;}.as{fill:#84909c;opacity:.42;}.at{fill:#707e8c;opacity:.49;}.au{fill:#ced3d8;opacity:.17;}.r{stroke:#fff;stroke-width:3px;}.av{fill:#677685;opacity:.52;}.aw{fill:#bbc2c8;opacity:.23;}.ax{fill:#b1b9c0;opacity:.27;}.ay{fill:#828e9a;opacity:.42;}.b`{fill:#73818e;opacity:.48;}.ba{fill:#74818f;opacity:.47;}.bb{isolation:isolate;}.bc{fill:#6e7c8a;opacity:.49;}.bd{fill:#838f9b;opacity:.42;}.be{fill:#fcfcfd;opacity:.01;}.bf{fill:#abb3bb;opacity:.29;}.bg{fill:#c8cdd3;opacity:.19;}.bh{fill:#697886;opacity:.51;}.bi{fill:#627180;opacity:.53;}.bj{fill:#d7dbdf;opacity:.14;}.bk{fill:#a2abb4;opacity:.32;}.bl{fill:#eceef0;opacity:.06;}.bm{fill:#f2f3f5;opacity:.04;}.bn{fill:#485a6c;opacity:.62;}.bo{fill:#0145fe;}.bp{fill:#e7e9ec;opacity:.08;}.bq{fill:#bac1c7;opacity:.23;}.br{fill:#aab2bb;opacity:.29;}.bs{fill:#a0a9b2;opacity:.32;}.bt{fill:#dbdee2;opacity:.12;}.bu{fill:#7d8a96;opacity:.44;}.bv{fill:#2d62fe;}.bw{fill:#0545d3;opacity:.55;}.bx{fill:#495b6c;opacity:.62;}.by{fill:#c5cbd0;opacity:.2;}.c`{fill:#b4bbc3;opacity:.25;}.ca{fill:#949ea9;opacity:.36;}.cb{fill:#f0f1f3;opacity:.05;}.cc{fill:#5c6c7c;opacity:.55;}.cd{fill:#46586a;opacity:.63;}.ce{fill:#c4cacf;opacity:.2;}.cf{fill:#35495c;opacity:.69;}.cg{fill:#c7ccd2;opacity:.19;}.ch{fill:#fdfdfd;opacity:0;}.ci{fill:#9ba5ae;opacity:.34;}.cj{fill:#dcdfe3;opacity:.12;}.ck{fill:#8e99a4;opacity:.38;}.cl{fill:#f8f9f9;opacity:.02;}.cm{fill:#f9fafa;opacity:.02;}.cn{fill:#657483;opacity:.52;}.co{fill:#5e6e7d;opacity:.55;}.cp{fill:#ccd1d6;opacity:.17;}.cq{fill:#cdd2d7;opacity:.17;}.cr{fill:#e9ebed;opacity:.07;}.cs{fill:#4a5c6d;opacity:.62;}.ct{fill:#d1d5da;opacity:.16;}.cu{fill:#96a0aa;opacity:.36;}.cv{fill:#9aa4ae;opacity:.34;}.cw{fill:#bec4cb;opacity:.22;}.cx{fill:#bfc5cb;opacity:.22;}.cy{fill:#4f6071;opacity:.6;}.d`{fill:#526374;opacity:.59;}.da{fill:#bcc3c9;opacity:.23;}.db{fill:#556676;opacity:.58;}.dc{fill:#415366;opacity:.65;}.dd{fill:#afb7bf;opacity:.27;}.de{fill:#768391;opacity:.47;}.df{fill:#364a5d;opacity:.68;}.dg{fill:#3d5063;opacity:.66;}.dh{fill:#a3acb5;opacity:.31;}.di{fill:#dde0e4;opacity:.12;}.dj{fill:#6f7d8b;opacity:.49;}.dk{fill:#919ca6;opacity:.37;}.dl{fill:#dadee1;opacity:.13;}.dm{fill:#909ba6;opacity:.38;}.dn{fill:#c1c7cd;opacity:.21;}.do{fill:#9da7b0;opacity:.33;}.dp{fill:#5b6b7b;opacity:.56;}.dq{fill:#97a1ab;opacity:.35;}.dr{fill:#9ea7b1;opacity:.33;}.ds{fill:#e1e4e7;opacity:.1;}.dt{fill:#8b96a2;opacity:.39;}.du{fill:#e6e8eb;opacity:.08;}.dv{fill:#758290;opacity:.47;}.dw{fill:#34485b;opacity:.69;}.dx{fill:#b9c0c7;opacity:.24;}.dy{fill:#e0e3e6;opacity:.11;}.e`{fill:#cbd0d5;opacity:.18;}.ea{fill:#7c8995;opacity:.45;}.eb{fill:#667584;opacity:.52;}.ec{fill:#a4adb6;opacity:.31;}.ed{fill:#394c5f;opacity:.67;}.ee{fill:#adb5bd;opacity:.28;}.ef{fill:#929da7;opacity:.37;}.eg{fill:#72808d;opacity:.48;}.eh{fill:#d6dade;opacity:.14;}.ei{fill:#596979;opacity:.56;}.ej{fill:#4b5c6e;opacity:.61;}.ek{fill:#e3e6e8;opacity:.1;}.el{fill:#546575;opacity:.58;}.em{fill:#c9ced3;opacity:.18;}.en{fill:#dfe2e5;opacity:.11;}.eo{fill:#3a4d60;opacity:.67;}.ep{fill:#d0d5d9;opacity:.16;}.eq{fill:#7e8b97;opacity:.44;}.er{fill:#445668;opacity:.64;}.es{fill:#47596b;opacity:.63;}.et{fill:#f3f4f5;opacity:.04;}.eu{fill:#959faa;opacity:.36;}.ev{fill:#818d99;opacity:.43;}.ew{fill:#7a8794;opacity:.45;}.ex{fill:#b3bac2;opacity:.26;}.ey{fill:#798693;opacity:.46;}.f`{fill:#6a7887;opacity:.51;}.fa{fill:#f4f5f6;opacity:.04;}.fb{fill:#a9b1ba;opacity:.29;}.fc{fill:#8994a0;opacity:.4;}.fd{fill:#86929d;opacity:.41;}.fe{fill:#f5f6f7;opacity:.03;}.ff{fill:#5d6d7c;opacity:.55;}.fg{fill:#d8dce0;opacity:.13;}.fh{fill:#384b5f;opacity:.68;}.fi{fill:#3c4f62;opacity:.66;}.fj{fill:#d5d9dd;opacity:.14;}.fk{fill:#eaecee;opacity:.07;}.fl{fill:#506172;opacity:.59;}.fm{fill:#586878;opacity:.57;}.fn{fill:#dee1e4;opacity:.11;}.fo{fill:#6d7b89;opacity:.5;}.fp{fill:#405365;opacity:.65;}.fq{fill:#a8b0b9;opacity:.3;}.fr{fill:#b5bcc3;opacity:.25;}.fs{fill:#3e5163;opacity:.66;}.ft{fill:#8a95a1;opacity:.4;}.fu{fill:#516273;opacity:.59;}.fv{fill:#8d98a3;opacity:.39;}.fw{fill:#acb4bc;opacity:.28;}.fx{fill:#3f5264;opacity:.65;}.fy{fill:#778491;opacity:.46;}.g`{fill:#e4e7e9;opacity:.09;}.ga{fill:#425467;opacity:.64;}.gb{fill:#9ca6af;opacity:.34;}.gc{fill:#fafafb;opacity:.02;}.gd{fill:#c3c9cf;opacity:.2;}.ge{fill:#b7bec5;opacity:.24;}.gf{fill:#a1aab3;opacity:.32;}.gg{fill:#f6f7f8;opacity:.03;}.gh{fill:#7f8b98;opacity:.43;}.gi{fill:#bdc3ca;opacity:.22;}.gj{fill:#b6bdc4;opacity:.25;}.gk{fill:#eff1f2;opacity:.05;}.gl{fill:#7b8895;opacity:.45;}.gm{fill:#617080;opacity:.54;}.gn{fill:#d2d6db;opacity:.15;}.go{fill:#939da8;opacity:.37;}.gp{fill:#808c99;opacity:.43;}.gq{fill:#32465a;opacity:.7;}.gr{fill:#576778;opacity:.57;}.gs{fill:#c6ccd1;opacity:.19;}.gt{fill:#606f7f;opacity:.54;}.gu{fill:#cfd4d8;opacity:.16;}.gv{fill:#717f8d;opacity:.48;}.gw{fill:#e5e8ea;opacity:.09;}.gx{fill:#c2c8ce;opacity:.21;}.gy{fill:#f1f2f4;opacity:.05;}.h`{fill:#88949f;opacity:.4;}.ha{fill:#687785;opacity:.51;}.hb{fill:#d9dde0;opacity:.13;}.hc{mix-blend-mode:multiply;}.hd{fill:#fefefe;opacity:0;}.he{fill:#b8bfc6;opacity:.24;}.hf{fill:#6c7a89;opacity:.5;}.hg{fill:#8c97a2;opacity:.39;}.hh{fill:#455769;opacity:.63;}.hi{fill:#c0c6cc;opacity:.21;}.hj{fill:#6b7988;opacity:.5;}.hk{fill:#5a6a7a;opacity:.56;}.hl{fill:#a7b0b8;opacity:.3;}.hm{fill:#aeb6be;opacity:.28;}</style><linearGradient id="d" x1="6981.15" y1="-355.07" x2="7184.36" y2="-355.07" gradientTransform="translate(-237.67 -6978.65) rotate(90)" gradientUnits="userSpaceOnUse"><stop offset="0" stop-color="#fff"/><stop offset=".28" stop-color="#fafafb"/><stop offset=".6" stop-color="#edeef2"/><stop offset=".93" stop-color="#d7dae2"/><stop offset="1" stop-color="#d1d5de"/></linearGradient><linearGradient id="e" x1="13.3" y1="104.1" x2="221.51" y2="104.1" gradientTransform="matrix(1, 0, 0, 1, 0, 0)" xlink:href="#d"/></defs><g class="bb"><g id="a"/><g id="b"><g id="c"><g><g class="hc"><circle class="q" cx="117.41" cy="137.25" r="117.41"/><circle class="hd" cx="117.41" cy="137.22" r="117.19"/><circle class="ch" cx="117.41" cy="137.19" r="116.97"/><circle class="be" cx="117.41" cy="137.16" r="116.76"/><circle class="j" cx="117.41" cy="137.13" r="116.54"/><circle class="gc" cx="117.41" cy="137.1" r="116.32"/><circle class="cm" cx="117.41" cy="137.07" r="116.1"/><circle class="cl" cx="117.41" cy="137.03" r="115.89"/><circle class="am" cx="117.41" cy="137" r="115.67"/><circle class="gg" cx="117.41" cy="136.97" r="115.45"/><circle class="fe" cx="117.41" cy="136.94" r="115.24"/><circle class="fa" cx="117.41" cy="136.91" r="115.02"/><circle class="et" cx="117.41" cy="136.88" r="114.8"/><circle class="bm" cx="117.41" cy="136.85" r="114.59"/><circle class="gy" cx="117.41" cy="136.81" r="114.37"/><circle class="cb" cx="117.41" cy="136.78" r="114.15"/><circle class="gk" cx="117.41" cy="136.75" r="113.94"/><circle class="o" cx="117.41" cy="136.72" r="113.72"/><circle class="al" cx="117.41" cy="136.69" r="113.5"/><circle class="bl" cx="117.41" cy="136.66" r="113.28"/><circle class="ai" cx="117.41" cy="136.63" r="113.07"/><circle class="fk" cx="117.41" cy="136.6" r="112.85"/><circle class="cr" cx="117.41" cy="136.56" r="112.63"/><circle class="l" cx="117.41" cy="136.53" r="112.42"/><circle class="bp" cx="117.41" cy="136.5" r="112.2"/><circle class="du" cx="117.41" cy="136.47" r="111.98"/><circle class="gw" cx="117.41" cy="136.44" r="111.77"/><circle class="g`" cx="117.41" cy="136.41" r="111.55"/><circle class="ek" cx="117.41" cy="136.38" r="111.33"/><circle class="ad" cx="117.41" cy="136.34" r="111.12"/><circle class="ds" cx="117.41" cy="136.31" r="110.9"/><circle class="dy" cx="117.41" cy="136.28" r="110.68"/><circle class="en" cx="117.41" cy="136.25" r="110.46"/><circle class="fn" cx="117.41" cy="136.22" r="110.25"/><circle class="di" cx="117.41" cy="136.19" r="110.03"/><circle class="cj" cx="117.41" cy="136.16" r="109.81"/><circle class="bt" cx="117.41" cy="136.13" r="109.6"/><circle class="dl" cx="117.41" cy="136.09" r="109.38"/><circle class="hb" cx="117.41" cy="136.06" r="109.16"/><circle class="fg" cx="117.41" cy="136.03" r="108.95"/><circle class="bj" cx="117.41" cy="136" r="108.73"/><circle class="eh" cx="117.41" cy="135.97" r="108.51"/><circle class="fj" cx="117.41" cy="135.94" r="108.3"/><circle class="aj" cx="117.41" cy="135.91" r="108.08"/><circle class="ap" cx="117.41" cy="135.88" r="107.86"/><circle class="gn" cx="117.41" cy="135.84" r="107.65"/><circle class="ct" cx="117.41" cy="135.81" r="107.43"/><circle class="ep" cx="117.41" cy="135.78" r="107.21"/><circle class="gu" cx="117.41" cy="135.75" r="106.99"/><circle class="au" cx="117.41" cy="135.72" r="106.78"/><circle class="cq" cx="117.41" cy="135.69" r="106.56"/><circle class="cp" cx="117.41" cy="135.66" r="106.34"/><circle class="e`" cx="117.41" cy="135.62" r="106.13"/><circle class="w" cx="117.41" cy="135.59" r="105.91"/><circle class="em" cx="117.41" cy="135.56" r="105.69"/><circle class="bg" cx="117.41" cy="135.53" r="105.48"/><circle class="cg" cx="117.41" cy="135.5" r="105.26"/><circle class="gs" cx="117.41" cy="135.47" r="105.04"/><circle class="by" cx="117.41" cy="135.44" r="104.83"/><circle class="ce" cx="117.41" cy="135.41" r="104.61"/><circle class="gd" cx="117.41" cy="135.37" r="104.39"/><circle class="gx" cx="117.41" cy="135.34" r="104.17"/><circle class="dn" cx="117.41" cy="135.31" r="103.96"/><circle class="hi" cx="117.41" cy="135.28" r="103.74"/><circle class="cx" cx="117.41" cy="135.25" r="103.52"/><circle class="cw" cx="117.41" cy="135.22" r="103.31"/><circle class="gi" cx="117.41" cy="135.19" r="103.09"/><circle class="da" cx="117.41" cy="135.15" r="102.87"/><circle class="aw" cx="117.41" cy="135.12" r="102.66"/><circle class="bq" cx="117.41" cy="135.09" r="102.44"/><circle class="dx" cx="117.41" cy="135.06" r="102.22"/><circle class="he" cx="117.41" cy="135.03" r="102.01"/><circle class="ge" cx="117.41" cy="135" r="101.79"/><circle class="gj" cx="117.41" cy="134.97" r="101.57"/><circle class="fr" cx="117.41" cy="134.94" r="101.35"/><circle class="c`" cx="117.41" cy="134.9" r="101.14"/><circle class="ex" cx="117.41" cy="134.87" r="100.92"/><circle class="m" cx="117.41" cy="134.84" r="100.7"/><circle class="ax" cx="117.41" cy="134.81" r="100.49"/><circle class="ar" cx="117.41" cy="134.78" r="100.27"/><circle class="dd" cx="117.41" cy="134.75" r="100.05"/><circle class="hm" cx="117.41" cy="134.72" r="99.84"/><circle class="ee" cx="117.41" cy="134.68" r="99.62"/><circle class="fw" cx="117.41" cy="134.65" r="99.4"/><circle class="bf" cx="117.41" cy="134.62" r="99.19"/><circle class="br" cx="117.41" cy="134.59" r="98.97"/><circle class="fb" cx="117.41" cy="134.56" r="98.75"/><circle class="fq" cx="117.41" cy="134.53" r="98.53"/><circle class="hl" cx="117.41" cy="134.5" r="98.32"/><circle class="aa" cx="117.41" cy="134.47" r="98.1"/><circle class="n" cx="117.41" cy="134.43" r="97.88"/><circle class="ec" cx="117.41" cy="134.4" r="97.67"/><circle class="dh" cx="117.41" cy="134.37" r="97.45"/><circle class="bk" cx="117.41" cy="134.34" r="97.23"/><circle class="gf" cx="117.41" cy="134.31" r="97.02"/><circle class="bs" cx="117.41" cy="134.28" r="96.8"/><circle class="h" cx="117.41" cy="134.25" r="96.58"/><circle class="dr" cx="117.41" cy="134.21" r="96.37"/><circle class="do" cx="117.41" cy="134.18" r="96.15"/><circle class="gb" cx="117.41" cy="134.15" r="95.93"/><circle class="ci" cx="117.41" cy="134.12" r="95.71"/><circle class="cv" cx="117.41" cy="134.09" r="95.5"/><circle class="ao" cx="117.41" cy="134.06" r="95.28"/><circle class="v" cx="117.41" cy="134.03" r="95.06"/><circle class="dq" cx="117.41" cy="134" r="94.85"/><circle class="cu" cx="117.41" cy="133.96" r="94.63"/><circle class="eu" cx="117.41" cy="133.93" r="94.41"/><circle class="ca" cx="117.41" cy="133.9" r="94.2"/><circle class="go" cx="117.41" cy="133.87" r="93.98"/><circle class="ef" cx="117.41" cy="133.84" r="93.76"/><circle class="dk" cx="117.41" cy="133.81" r="93.55"/><circle class="dm" cx="117.41" cy="133.78" r="93.33"/><circle class="aq" cx="117.41" cy="133.74" r="93.11"/><circle class="ck" cx="117.41" cy="133.71" r="92.89"/><circle class="fv" cx="117.41" cy="133.68" r="92.68"/><circle class="hg" cx="117.41" cy="133.65" r="92.46"/><circle class="dt" cx="117.41" cy="133.62" r="92.24"/><circle class="ft" cx="117.41" cy="133.59" r="92.03"/><circle class="fc" cx="117.41" cy="133.56" r="91.81"/><circle class="h`" cx="117.41" cy="133.53" r="91.59"/><circle class="u" cx="117.41" cy="133.49" r="91.38"/><circle class="fd" cx="117.41" cy="133.46" r="91.16"/><circle class="a`" cx="117.41" cy="133.43" r="90.94"/><circle class="as" cx="117.41" cy="133.4" r="90.73"/><circle class="bd" cx="117.41" cy="133.37" r="90.51"/><circle class="ay" cx="117.41" cy="133.34" r="90.29"/><circle class="ev" cx="117.41" cy="133.31" r="90.07"/><circle class="gp" cx="117.41" cy="133.27" r="89.86"/><circle class="gh" cx="117.41" cy="133.24" r="89.64"/><circle class="eq" cx="117.41" cy="133.21" r="89.42"/><circle class="bu" cx="117.41" cy="133.18" r="89.21"/><circle class="ea" cx="117.41" cy="133.15" r="88.99"/><circle class="gl" cx="117.41" cy="133.12" r="88.77"/><circle class="ew" cx="117.41" cy="133.09" r="88.56"/><circle class="ey" cx="117.41" cy="133.06" r="88.34"/><circle class="ab" cx="117.41" cy="133.02" r="88.12"/><circle class="fy" cx="117.41" cy="132.99" r="87.91"/><circle class="de" cx="117.41" cy="132.96" r="87.69"/><circle class="dv" cx="117.41" cy="132.93" r="87.47"/><circle class="ba" cx="117.41" cy="132.9" r="87.25"/><circle class="b`" cx="117.41" cy="132.87" r="87.04"/><circle class="eg" cx="117.41" cy="132.84" r="86.82"/><circle class="gv" cx="117.41" cy="132.8" r="86.6"/><circle class="at" cx="117.41" cy="132.77" r="86.39"/><circle class="dj" cx="117.41" cy="132.74" r="86.17"/><circle class="bc" cx="117.41" cy="132.71" r="85.95"/><circle class="fo" cx="117.41" cy="132.68" r="85.74"/><circle class="hf" cx="117.41" cy="132.65" r="85.52"/><circle class="hj" cx="117.41" cy="132.62" r="85.3"/><circle class="f`" cx="117.41" cy="132.59" r="85.09"/><circle class="bh" cx="117.41" cy="132.55" r="84.87"/><circle class="ha" cx="117.41" cy="132.52" r="84.65"/><circle class="av" cx="117.41" cy="132.49" r="84.43"/><circle class="eb" cx="117.41" cy="132.46" r="84.22"/><circle class="cn" cx="117.41" cy="132.43" r="84"/><circle class="an" cx="117.41" cy="132.4" r="83.78"/><circle class="x" cx="117.41" cy="132.37" r="83.57"/><circle class="bi" cx="117.41" cy="132.33" r="83.35"/><circle class="gm" cx="117.41" cy="132.3" r="83.13"/><circle class="gt" cx="117.41" cy="132.27" r="82.92"/><circle class="ah" cx="117.41" cy="132.24" r="82.7"/><circle class="co" cx="117.41" cy="132.21" r="82.48"/><circle class="ff" cx="117.41" cy="132.18" r="82.27"/><circle class="cc" cx="117.41" cy="132.15" r="82.05"/><circle class="dp" cx="117.41" cy="132.12" r="81.83"/><circle class="hk" cx="117.41" cy="132.08" r="81.61"/><circle class="ei" cx="117.41" cy="132.05" r="81.4"/><circle class="fm" cx="117.41" cy="132.02" r="81.18"/><circle class="gr" cx="117.41" cy="131.99" r="80.96"/><circle class="g" cx="117.41" cy="131.96" r="80.75"/><circle class="db" cx="117.41" cy="131.93" r="80.53"/><circle class="el" cx="117.41" cy="131.9" r="80.31"/><circle class="y" cx="117.41" cy="131.87" r="80.1"/><circle class="d`" cx="117.41" cy="131.83" r="79.88"/><circle class="fu" cx="117.41" cy="131.8" r="79.66"/><circle class="fl" cx="117.41" cy="131.77" r="79.45"/><circle class="cy" cx="117.41" cy="131.74" r="79.23"/><circle class="ak" cx="117.41" cy="131.71" r="79.01"/><circle class="s" cx="117.41" cy="131.68" r="78.79"/><circle class="t" cx="117.41" cy="131.65" r="78.58"/><circle class="ej" cx="117.41" cy="131.61" r="78.36"/><circle class="cs" cx="117.41" cy="131.58" r="78.14"/><circle class="bx" cx="117.41" cy="131.55" r="77.93"/><circle class="bn" cx="117.41" cy="131.52" r="77.71"/><circle class="es" cx="117.41" cy="131.49" r="77.49"/><circle class="cd" cx="117.41" cy="131.46" r="77.28"/><circle class="hh" cx="117.41" cy="131.43" r="77.06"/><circle class="er" cx="117.41" cy="131.4" r="76.84"/><circle class="af" cx="117.41" cy="131.36" r="76.63"/><circle class="ga" cx="117.41" cy="131.33" r="76.41"/><circle class="dc" cx="117.41" cy="131.3" r="76.19"/><circle class="fp" cx="117.41" cy="131.27" r="75.97"/><circle class="fx" cx="117.41" cy="131.24" r="75.76"/><circle class="fs" cx="117.41" cy="131.21" r="75.54"/><circle class="dg" cx="117.41" cy="131.18" r="75.32"/><circle class="fi" cx="117.41" cy="131.14" r="75.11"/><circle class="k" cx="117.41" cy="131.11" r="74.89"/><circle class="eo" cx="117.41" cy="131.08" r="74.67"/><circle class="ed" cx="117.41" cy="131.05" r="74.46"/><circle class="fh" cx="117.41" cy="131.02" r="74.24"/><circle class="i" cx="117.41" cy="130.99" r="74.02"/><circle class="df" cx="117.41" cy="130.96" r="73.81"/><circle class="cf" cx="117.41" cy="130.93" r="73.59"/><circle class="dw" cx="117.41" cy="130.89" r="73.37"/><circle class="ag" cx="117.41" cy="130.86" r="73.16"/><circle class="gq" cx="117.41" cy="130.83" r="72.94"/><circle class="ae" cx="117.41" cy="130.8" r="72.72"/></g><circle class="ac" cx="117.41" cy="104.1" r="101.6"/></g><g><path class="bo" d="M63.95,62.54s36.9-4.69,50.29-24.82h6.58s18.38,25.5,55.15,24.82v71.15l-10.89,20.77-45.11,24.28-43.74-19.51-12.27-20.6-5.09-22.36,5.09-53.72Z"/><polygon class="bw" points="118.1 32.96 118.1 180.32 162.47 157.42 175.96 134.9 175.96 62.54 141.45 55.04 118.1 32.96"/><g id="f"><g><path class="p" d="M118.09,119.89c-2.17,0-3.93,1.57-3.93,3.51,0,1.14,.61,2.2,1.65,2.83,.36,.22,.6,.54,.71,.9,.02,.23,.05,.46,.07,.69v2.55c0,.73,.67,1.33,1.5,1.33s1.53-.6,1.53-1.33v-2.82c0-.52,.28-1.01,.75-1.3,1.04-.66,1.66-1.72,1.66-2.85,0-1.94-1.76-3.51-3.94-3.51Z"/><path class="p" d="M121.04,127.31h-.01c-.1,.06-.16,.16-.16,.24v2.82c0,1.42-1.25,2.59-2.78,2.59s-2.75-1.17-2.75-2.59v-2.82c0-.09-.07-.18-.19-.25-1.4-.86-2.24-2.32-2.24-3.9,0-2.63,2.32-4.77,5.18-4.77s5.19,2.14,5.19,4.77c0,1.55-.83,3.01-2.24,3.91Z"/></g><path class="p" d="M109.83,69.96c-9.48,3.22-16.09,11.7-16.09,21.15v-.6c0-5.97,2.63-11.55,7.4-15.71,2.49-2.17,5.45-3.82,8.69-4.84Z"/><path class="p" d="M119.35,68.63c-.38-.02-.75-.04-1.13-.04h.43c.23,0,.47,.02,.7,.04Z"/><path class="p" d="M135.62,90.51v.6c0-8.02-6.58-14.78-15.31-15.74,3.86,.39,7.38,1.89,10.18,4.34,3.31,2.88,5.13,6.72,5.13,10.8Z"/><path class="p" d="M142.7,91.11v17.7c0,.33-.05,.65-.15,.95-.23-.04-.47-.06-.71-.06h-6.09c-.08-.29-.13-.58-.13-.89v-18.3c0-4.08-1.82-7.92-5.13-10.8-2.8-2.45-6.32-3.95-10.18-4.34-.2-.02-.38-.04-.56-.05h-.03l-.36-.02c-.16-.02-.33-.03-.49-.03-.24-.01-.41-.01-.58-.01h-.42c-.06,0-.12,0-.18,.01h-.12c-.17,0-.32,.01-.49,.03h-.12c-.28,.02-.56,.05-.84,.07-.29,.03-.56,.07-.84,.11-.26,.04-.51,.08-.75,.14-.5,.1-.99,.22-1.47,.35-.22,.06-.45,.13-.67,.2-2.41,.71-4.59,1.92-6.44,3.53-3.31,2.89-5.13,6.73-5.13,10.81v18.3c0,.31-.05,.6-.13,.89h-6.82c-.08-.29-.13-.58-.13-.89v-17.7c0-9.45,6.61-17.93,16.09-21.15,.31-.1,.62-.2,.93-.29,.17-.05,.33-.09,.5-.14,.17-.05,.33-.09,.5-.13,.34-.09,.69-.17,1.03-.24,.24-.06,.53-.12,.83-.16,.28-.06,.62-.11,.96-.15,.12-.03,.24-.04,.36-.05,.34-.04,.67-.07,1-.1,.3-.03,.63-.05,.95-.07,.17-.01,.34-.02,.5-.02h.03c.25-.01,.48-.02,.71-.02h.09c.38,0,.75,.02,1.13,.04,.34,0,.72,.03,1.09,.06,.14,.01,.2,.02,.26,.02,.2,.02,.47,.05,.73,.08,.2,.02,.37,.04,.56,.08,.2,.02,.47,.06,.72,.1,.28,.04,.59,.1,.9,.18,.34,.07,.69,.15,1.03,.23,10.51,2.63,18.06,11.62,18.06,21.73Z"/><path class="p" d="M112.39,76.17c-6.82,2.24-11.57,8.23-11.57,14.94v-.6c0-4.08,1.82-7.92,5.13-10.81,1.85-1.61,4.03-2.82,6.44-3.53Z"/><path class="p" d="M118.13,68.59c-.23,0-.46,0-.71,.02,.12-.01,.25-.02,.37-.02h.34Z"/><path class="p" d="M142.7,90.51v.6c0-10.11-7.55-19.1-18.06-21.73,3.96,.93,7.64,2.8,10.66,5.42,4.77,4.16,7.4,9.74,7.4,15.71Z"/><path class="r" d="M142.7,107.81v1c0,.33-.05,.65-.15,.95,2.07,.31,3.66,1.96,3.66,3.96v24.15c0,2.21-1.96,4.01-4.37,4.01h-48.87c-2.41,0-4.37-1.8-4.37-4.01v-24.15c0-2.22,1.96-4.02,4.37-4.02h.9c-.08-.29-.13-.58-.13-.89v-1.05h-.77c-3.7,0-6.72,2.67-6.72,5.96v24.15c0,3.29,3.02,5.96,6.72,5.96h48.87c3.7,0,6.71-2.67,6.71-5.96v-24.15c0-3.03-2.56-5.54-5.85-5.91Zm-.78,1v-1.05h-46.02v1.05c0,.31-.05,.6-.13,.89h46.28c-.08-.29-.13-.58-.13-.89Z"/></g><path class="bv" d="M118.25,182.62c-.37,0-.74-.08-1.09-.25l-32.67-15.6c-16.78-8.01-27.61-25.19-27.61-43.78V61.97c0-1.29,.98-2.37,2.26-2.51,39.33-4.09,56.98-25.41,57.15-25.62,.95-1.18,2.96-1.19,3.92,0,.18,.21,17.97,21.55,57.15,25.62,1.28,.13,2.26,1.21,2.26,2.51v61.02c0,18.59-10.84,35.77-27.61,43.78l-32.67,15.6c-.34,.16-.71,.25-1.09,.25ZM63.61,65.54v57.01c0,16.16,9.42,31.1,24.01,38.06l30.64,14.63,30.64-14.63c14.58-6.96,24.01-21.9,24.01-38.06v-57.01c-31.89-3.89-49.18-18.75-54.64-24.31-5.46,5.56-22.75,20.42-54.65,24.31Z"/></g></g></g></g></svg>